<svg version="1.2" xmlns="http://www.w3.org/2000/svg" viewBox="0 0 375 380" width="375" height="380">
	<title>img_bg1</title>
	<style>
		tspan { white-space:pre } 
		.s0 { fill: #fedbcf } 
		.s1 { fill: #fe9580 } 
		.s2 { fill: #f08231 } 
		.s3 { fill: none;stroke: #ffd537;stroke-width: 3.1 } 
		.s4 { fill: #cdc9dd } 
		.s5 { fill: #372978 } 
		.s6 { fill: none;stroke: #ffd537;stroke-width: 3 } 
		.s7 { fill: #d2f2ed } 
		.s8 { fill: #4bccb8 } 
		.t9 { font-size: 27px;text-transform: uppercase;fill: #ffffff;font-weight: bold;font-family: "Metropolis" } 
		.t10 { font-size: 24px;text-transform: uppercase;fill: #ffffff;font-family: "Metropolis" } 
	</style>
	<g id="Elements">
		<g id="&lt;Group&gt;">
			<g id="&lt;Group&gt;">
				<path id="&lt;Path&gt;" class="s0" d="m-373.2 89.2c25.6 5.4 52.7 3.3 77.9-5.7 65.9-23.4 120.1 7 133.7 26.1 15.8 22.2 18.4 51.3 11.1 78-7.3 26.7-23.8 51.1-43.5 72.3-15.4 16.5-33.5 31.7-55 40.3-21.1 8.5-44.2 10.1-66.8 11.3-29 1.4-58.6 2.2-86.2-4.6-22.6-5.5-45.7-19.2-47.7-40.8-1.7-18.4 12.8-36.5 10.8-54.9-2.9-25.7-35.2-38.4-45.9-61.9-12.4-27.5 3.4-57.7 25-64.2 22.6-6.8 58.3-1.9 86.6 4.1z"/>
				<g id="&lt;Group&gt;">
					<path id="&lt;Path&gt;" class="s1" d="m-369.2 200.4c1.6 6.2-4.7 9.6-9.6 8.1-2.2-0.7-3.4-2.8-4-4.9-0.3-1-0.5-2.1-0.1-3.4"/>
					<path id="&lt;Path&gt;" class="s1" d="m-327.6 226.1c-2.2 2-4.7 2.1-7.4 0.7-2.7-1.3-3.8-3.3-3.7-6.1"/>
					<path id="&lt;Path&gt;" class="s1" d="m-361.7 206.4c3.5 1.8 4.6 5.2 2.8 8.9-1.8 3.7-5.1 4.8-9 3-3.7-1.8-4.7-5.2-2.9-9.1 0.8-1.6 1.9-2.7 3.6-3.3"/>
					<path id="&lt;Path&gt;" class="s1" d="m-350.2 216.4c3.5 1.8 4.6 5.2 2.8 8.9-1.8 3.7-5.2 4.8-9 3-3.7-1.8-4.8-5.2-2.9-9 1.8-3.7 5.2-4.8 9.1-2.9z"/>
					<path id="&lt;Path&gt;" class="s1" d="m-318.5 225.2c3.5 1.5 4.7 5.6 3.1 8.9-1.5 3.2-5.4 4.8-9 3-3.3-1.7-4.7-5.6-2.9-9"/>
					<path id="&lt;Path&gt;" class="s1" d="m-383.1 207.2c3.2 1.5 4.8 5.4 3 9-1.6 3.2-5.5 4.8-9 2.9-3.3-1.8-4.5-5.3-2.9-8.7 1.6-3.7 5.8-4.7 8.9-3.2z"/>
					<path id="&lt;Path&gt;" class="s1" d="m-294 232.7c-1.6 3.2-5.5 4.8-9 2.9-3.3-1.8-4.5-5.2-2.9-8.7"/>
					<path id="&lt;Path&gt;" class="s1" d="m-348.5 229c1.8-3.3 5.7-4.7 9.1-2.8 3.4 1.8 4.5 5.6 2.7 9-1.5 3.1-5.6 4.4-8.8 2.8-3.2-1.6-4.7-5.5-3-9z"/>
					<path id="&lt;Path&gt;" class="s1" d="m-403.5 200.3c1.6-3.2 5.5-4.8 9-3.1 3.3 1.7 4.8 5.6 2.9 9-1.8 3.4-5.2 4.6-8.7 3-3.6-1.6-4.7-5.8-3.2-8.9z"/>
					<path id="&lt;Path&gt;" class="s1" d="m-405.8 187.3c3.4 2 4.4 5.3 2.9 8.8-1.5 3.2-5.4 4.8-9 3.1-3.3-1.7-4.8-5.6-2.9-9 1.8-3.4 5.6-4.7 9-2.9z"/>
					<path id="&lt;Path&gt;" class="s1" d="m-413.5 185.7c-1.6 3.7-5.8 4.7-8.9 3.2-3.2-1.5-4.8-5.4-3.1-9"/>
					<path id="&lt;Path&gt;" class="s1" d="m-230.7 207.6c-1.3 2.9-5.9 4.6-8.7 3.3"/>
					<path id="&lt;Path&gt;" class="s1" d="m-377.5 229.2c-3-1.5-4.5-6.1-3-9.1 1.5-2.8 6.1-4.3 8.9-2.9 3 1.5 4.5 6.1 2.9 9.1-1.4 2.8-6 4.3-8.8 2.9z"/>
					<path id="&lt;Path&gt;" class="s1" d="m-424.8 175.5c-1.4 3.1-5.9 4.9-8.9 3.5-3-1.4-4.7-5.9-3.4-8.7"/>
					<path id="&lt;Path&gt;" class="s1" d="m-244 210.1c2.9 1.2 4.7 5.9 3.3 8.9-1.2 2.8-5.8 4.6-8.7 3.3-2.9-1.2-4.7-5.9-3.3-8.9"/>
					<path id="&lt;Path&gt;" class="s1" d="m-315.9 238.3c1.3-2.8 5.8-4.5 8.7-3.2 2.9 1.2 4.7 6 3.3 9-1.3 2.8-5.8 4.4-8.8 3.2-2.9-1.3-4.6-6.1-3.2-9z"/>
					<path id="&lt;Path&gt;" class="s1" d="m-366.9 239.5c-2.9-1.5-4.5-6.3-3-9.1 1.5-2.8 6.1-4.3 8.8-2.9 3 1.4 4.5 6.3 3 9.1-1.5 2.8-6 4.3-8.8 2.9z"/>
					<path id="&lt;Path&gt;" class="s1" d="m-334 248c-2.9-1.4-4.5-6.2-3-9 1.5-2.8 6-4.3 8.8-3 3 1.5 4.6 6.3 3 9.1-1.5 2.8-6 4.3-8.8 2.9z"/>
					<path id="&lt;Path&gt;" class="s1" d="m-282.3 238.1c0.1 1.5 0.4 3.4-0.3 4.5-0.9 1.3-2.2 2.8-4.1 3.2-1.6 0.4-3.2-0.1-4.9-0.2-0.8-1.5-2.9-2.3-3-4.3-0.1-1.5 0.1-3 0.1-4.5"/>
					<path id="&lt;Path&gt;" class="s1" d="m-347.2 246.2c-1.8 3.7-4.3 4.5-8.1 2.6-3.6-1.7-4.4-4.3-2.5-8.1q2.5-5.2 7.9-2.6c3.7 1.8 4.5 4.4 2.7 8.1z"/>
					<path id="&lt;Path&gt;" class="s1" d="m-404.5 209.4c3.5 1.7 4.2 4.4 2.3 8.3-1.7 3.3-4.3 4.1-8 2.3-3.6-1.8-4.4-4.3-2.6-8.2 1.8-3.5 4.4-4.3 8.3-2.4z"/>
					<path id="&lt;Path&gt;" class="s1" d="m-398.7 230c-3.7-1.8-4.5-4.3-2.6-8.1 1.7-3.6 4.3-4.4 8.2-2.5 3.4 1.6 4.2 4.3 2.5 7.9-1.8 3.7-4.4 4.5-8.1 2.7z"/>
					<path id="&lt;Path&gt;" class="s1" d="m-254.7 222q5.4 2.6 2.9 7.8c-1.8 3.8-4.3 4.8-7.9 3.1-3.9-1.9-4.8-4.4-3.1-8"/>
					<path id="&lt;Path&gt;" class="s1" d="m-421.2 209.5c-3.7-1.8-4.6-4.4-2.8-8.1 1.7-3.6 4.3-4.5 8.1-2.7 3.5 1.7 4.4 4.3 2.7 7.8-1.8 3.8-4.3 4.8-8 3z"/>
					<path id="&lt;Path&gt;" class="s1" d="m-379.9 237.1c0 2.1-2 2.6-3.3 3.1-1.4 0.6-3.1 0.3-4.8-0.4-1.8-0.8-2.6-2.2-3.1-3.5-0.5-1.5-0.3-3.2 0.6-4.9 0.8-1.6 2.2-2.5 3.5-3 1.3-0.5 3-0.2 4.6 0.5 1.7 0.7 2.6 2.1 3.1 3.4 0.5 1.4 1 3.4-0.6 4.8z"/>
					<path id="&lt;Path&gt;" class="s1" d="m-424.9 196.8c0.1 2.1-1.9 2.6-3.2 3.2-1.4 0.5-3.2 0.3-4.9-0.5-1.7-0.8-2.6-2.2-3-3.5-0.5-1.5-0.4-3.2 0.5-4.9 0.9-1.6 2.2-2.5 3.6-3 1.3-0.5 2.9-0.2 4.6 0.5 1.7 0.7 2.6 2.1 3.1 3.4 0.5 1.4 1 3.4-0.7 4.8z"/>
					<path id="&lt;Path&gt;" class="s1" d="m-199.7 190.4c0.5 1.4 1 3.4-0.6 4.8 0 2.1-2 2.6-3.3 3.1-1.4 0.6-3.1 0.3-4.8-0.5-1.7-0.7-2.6-2.1-3.1-3.4"/>
					<path id="&lt;Path&gt;" class="s1" d="m-322.2 257.3c-2.1-0.1-2.8-2-3.4-3.4-0.4-1.3-0.3-3 0.5-4.6 0.8-1.7 2.1-2.6 3.4-3.1 1.4-0.6 3.2-0.3 4.9 0.4 1.7 0.7 2.6 2.1 3 3.4 0.5 1.3 0.7 3-0.3 4.6-0.8 1.5-1.9 2.8-3.3 3.2-1.4 0.5-3.3 1.2-4.8-0.5z"/>
					<path id="&lt;Path&gt;" class="s1" d="m-264.4 233.5c2 0.6 2.1 2.3 2.8 3.8 0.8 1.5 0.3 2.8-0.3 4.3-0.7 1.8-1.9 2.4-3.6 2.9-2.4 0.7-2.3 0.8-4.8-0.4-1.8-0.2-2-2-2.7-3.5-0.8-1.7-0.2-3 0.3-4.6"/>
					<path id="&lt;Path&gt;" class="s1" d="m-376.4 249.7c-2.9-1.4-4.1-5.2-2.6-8.1 1.4-2.9 5.2-4 8.2-2.5 2.6 1.3 3.8 5.1 2.5 7.9-1.4 2.9-5.2 4.2-8.1 2.7z"/>
					<path id="&lt;Path&gt;" class="s1" d="m-218 209.4c-3-1.4-4.4-5.1-3-8.1 1.4-2.8 5.1-4.2 7.8-2.9 3 1.4 4.5 5.1 3.2 7.9-1.5 3-5.1 4.4-8 3.1z"/>
					<path id="&lt;Path&gt;" class="s1" d="m-301.1 256.5c-2.9-1.4-4.2-5.1-2.7-8.1 1.4-2.8 5.2-4 8.1-2.5 2.7 1.3 4 5.1 2.7 7.8-1.4 3-5.2 4.3-8.1 2.8z"/>
					<path id="&lt;Path&gt;" class="s1" d="m-230.9 212.7c1.4-2.9 5.1-4.1 8-2.7 2.9 1.4 4.2 5.2 2.7 8.1-1.4 2.8-5.1 4-7.9 2.7-2.9-1.4-4.3-5.1-2.8-8.1z"/>
					<path id="&lt;Path&gt;" class="s1" d="m-343.7 258.9c-2.9-1.4-4.2-5.2-2.7-8.1 1.4-2.9 5.1-4.1 8.1-2.6 2.7 1.3 4 5 2.7 7.8-1.4 3-5.2 4.3-8.1 2.9z"/>
					<path id="&lt;Path&gt;" class="s1" d="m-279.7 255.1c-2.9-1.5-4.1-5.2-2.6-8.2 1.4-2.8 5.2-4 8.1-2.5 2.7 1.4 3.9 5.2 2.6 7.9-1.4 2.9-5.2 4.2-8.1 2.8z"/>
					<path id="&lt;Path&gt;" class="s1" d="m-241.3 223.3c1.5-2.9 5.2-4.2 8.1-2.7 2.9 1.4 4.2 5.1 2.7 8.1-1.4 2.7-5.1 4-7.9 2.7-2.9-1.4-4.3-5.2-2.9-8.1z"/>
					<path id="&lt;Path&gt;" class="s1" d="m-443.6 189.7c-2.9-1.4-4.2-5.1-2.7-8.1 1.4-2.9 5.2-4 8.2-2.5 2.7 1.3 3.9 5.1 2.6 7.8-1.4 3-5.2 4.3-8.1 2.8z"/>
					<path id="&lt;Path&gt;" class="s1" d="m-365.2 260.3c-2.9-1.4-4.1-5.2-2.6-8.1 1.4-2.9 5.2-4 8.1-2.5 2.7 1.3 3.9 5.1 2.6 7.9-1.5 2.9-5.2 4.2-8.1 2.7z"/>
					<path id="&lt;Path&gt;" class="s1" d="m-332 269c-3.2-1.6-4.4-5.5-2.9-8.3 1.5-2.8 5.5-4.1 8.1-2.5 1.2 0.9 2.5 1.9 2.9 3.6 0.4 1.5 0.3 3-0.4 4.3-0.7 1.4-1.8 2.4-3.4 3-1.6 0.6-3.1 0-4.3-0.1z"/>
					<path id="&lt;Path&gt;" class="s1" d="m-446.9 172c0.8 1.8 0.1 3.3 0 5-1.2 1.1-1.9 2.6-3.6 3-1.1 0.2-3.7 0.2-4.6-0.3-2.7-1.4-4-5-2.8-7.8"/>
					<path id="&lt;Path&gt;" class="s1" d="m-422.5 222.8c1.2-2.4 5.8-3.9 8.1-2.6 2.3 1.3 3.8 6 2.5 8.2-1.2 2.2-5.7 3.6-7.9 2.5-2.4-1.2-3.9-5.8-2.7-8.1z"/>
					<path id="&lt;Path&gt;" class="s1" d="m-408.5 241.6c-2.4-1-4-5.6-2.9-8 1-2.3 5.3-3.9 7.7-3 2.4 0.9 4.2 5.4 3.2 7.9-1 2.4-5.5 4.1-8 3.1z"/>
					<path id="&lt;Path&gt;" class="s1" d="m-248.4 242.8c-2.4-1-4-5.6-2.9-8 1.1-2.3 5.4-3.9 7.8-2.9 2.4 0.9 4.2 5.5 3.1 7.9-1 2.4-5.5 4.1-8 3z"/>
					<path id="&lt;Path&gt;" class="s1" d="m-313.8 259.9c1.2-2.4 5.9-3.8 8.1-2.6 2.4 1.3 3.8 6 2.5 8.2-1.2 2.2-5.6 3.6-7.9 2.5-2.4-1.1-3.9-5.7-2.7-8.1z"/>
					<path id="&lt;Path&gt;" class="s1" d="m-423.1 218.1c-1.2 1-2.2 2.4-3.5 2.8-1.4 0.5-3.2 0.5-4.5-0.1-1.3-0.6-2.5-2-3-3.4-0.4-1.3-0.4-3.1 0.2-4.4 0.5-1.2 1.9-2.4 3.1-2.8 1.4-0.5 3.2-0.6 4.5-0.1 1.3 0.6 2.5 2 3.1 3.3 0.5 1.4 0.1 3.1 0.1 4.7z"/>
					<path id="&lt;Path&gt;" class="s1" d="m-356.5 262.2c1.2-1 2.3-2.3 3.7-2.7 1.3-0.5 3.2-0.4 4.4 0.2 1.3 0.7 2.4 2.2 2.9 3.6 0.4 1.3 0.3 3.2-0.4 4.4-0.7 1.3-2.2 2.3-3.6 2.8-1.2 0.4-3 0.4-4.1-0.3-1.3-0.6-2.5-2.1-2.9-3.4-0.5-1.4-0.1-3 0-4.6z"/>
					<path id="&lt;Path&gt;" class="s1" d="m-400.6 243.2c1.2-1 2.2-2.4 3.6-2.8 1.4-0.5 3.2-0.5 4.5 0.2 1.2 0.6 2.4 2.1 2.8 3.4 0.5 1.4 0.4 3.2-0.2 4.5-0.6 1.2-2 2.3-3.2 2.7-1.4 0.5-3.3 0.5-4.5-0.1-1.3-0.6-2.5-2-3-3.3-0.5-1.4-0.1-3.1 0-4.6z"/>
					<path id="&lt;Path&gt;" class="s1" d="m-289.7 266.6c-1-1.2-2.3-2.3-2.8-3.6-0.4-1.4-0.4-3.3 0.3-4.5 0.6-1.3 2.1-2.4 3.5-2.8 1.3-0.5 3.2-0.3 4.5 0.3 1.1 0.5 2.2 1.9 2.6 3.2 0.5 1.4 0.5 3.3-0.1 4.5-0.7 1.2-1.8 2.7-3.4 3-1.5 0.2-3-0.1-4.6-0.1z"/>
					<path id="&lt;Path&gt;" class="s1" d="m-260.5 246.3c0.2-1.6 1.6-2 2.9-2.7 1.7-0.8 2.9 0 4.3 0.5 1.5 0.6 2 1.7 2.7 3 0.9 1.8-0.1 3-0.6 4.4-0.5 1.5-1.7 2-3 2.6-1.6 0.6-2.7 0.1-4.1-0.5-1.4-0.6-2.1-1.4-2.7-2.9-0.7-1.7-0.4-3 0.5-4.4z"/>
					<path id="&lt;Path&gt;" class="s1" d="m-321.3 277.8c-1.6-0.2-2-1.5-2.7-2.8-0.8-1.7 0-2.9 0.5-4.4 0.6-1.5 1.7-2 3-2.6 1.8-0.9 3 0 4.4 0.5 1.5 0.5 2 1.7 2.6 3.1 0.6 1.5 0.1 2.7-0.5 4-0.6 1.4-1.4 2.2-2.9 2.8-1.7 0.6-3 0.4-4.4-0.6z"/>
					<path id="&lt;Path&gt;" class="s1" d="m-376.9 263.2c0.2-1.5 1.6-1.9 2.9-2.6 1.7-0.8 2.9-0.1 4.3 0.5 1.6 0.5 2 1.7 2.7 3 0.9 1.8 0 2.9-0.5 4.3-0.6 1.6-1.7 2.1-3.1 2.7-1.6 0.6-2.7 0.1-4.1-0.5-1.4-0.6-2.1-1.5-2.7-2.9-0.7-1.7-0.4-3 0.5-4.5z"/>
					<path id="&lt;Path&gt;" class="s1" d="m-378.9 258.1c-0.4 1.5-1.3 2.3-2.8 2.9-1.7 0.6-2.9 0.4-4.4-0.4-1.3-0.6-2.2-1.4-2.8-2.9-0.6-1.7-0.2-2.9 0.4-4.4 0.7-1.4 1.5-2.2 3-2.7 1.5-0.5 2.7-0.4 4.1 0.3 1.4 0.8 2.5 1.5 2.9 3.2 0.4 1.5 0.6 2.8-0.4 4z"/>
					<path id="&lt;Path&gt;" class="s1" d="m-435.3 207.8c-0.4 1.5-1.3 2.3-2.8 2.9-1.7 0.6-2.9 0.4-4.4-0.4-1.3-0.6-2.2-1.4-2.8-2.9-0.6-1.7-0.2-2.9 0.4-4.3 0.7-1.5 1.5-2.2 3-2.8 1.5-0.5 2.7-0.4 4.1 0.3 1.4 0.8 2.5 1.5 2.9 3.2 0.4 1.5 0.6 2.8-0.4 4z"/>
					<path id="&lt;Path&gt;" class="s1" d="m-169.6 182.4c-1.3 2.9-4.3 3.9-7.1 2.5"/>
					<path id="&lt;Path&gt;" class="s1" d="m-335.4 277c-1.4 2.8-4.3 3.8-7.2 2.4-2.9-1.4-3.8-4.3-2.3-7.2 1.3-2.7 4.2-3.7 6.9-2.4 2.9 1.4 4 4.3 2.6 7.2z"/>
					<path id="&lt;Path&gt;" class="s1" d="m-455.7 193.5c1.4-2.9 4.3-3.9 7.2-2.4 2.8 1.4 3.7 4.3 2.3 7.2-1.4 2.7-4.3 3.7-7 2.3-2.9-1.3-3.9-4.3-2.5-7.1z"/>
					<path id="&lt;Path&gt;" class="s1" d="m-302.5 270.1c1.4-2.9 4.2-3.8 7.2-2.6 2.4 0.9 3.9 4.5 2.7 6.9-1.5 2.9-4.3 4.1-7.1 2.8-3-1.4-4.1-4.2-2.8-7.1z"/>
					<path id="&lt;Path&gt;" class="s1" d="m-227.1 241.3c-2.9-1.4-3.8-4.3-2.3-7.3 1.4-2.8 4.3-3.7 7.3-2.2 2.6 1.4 3.6 4.3 2.2 7.1-1.4 2.8-4.3 3.8-7.2 2.4z"/>
					<path id="&lt;Path&gt;" class="s1" d="m-219.5 222.7c1.5-2.9 4.4-3.8 7.3-2.4 2.8 1.4 3.7 4.4 2.2 7.3-1.3 2.7-4.3 3.6-7 2.3-2.9-1.4-3.9-4.4-2.5-7.2z"/>
					<path id="&lt;Path&gt;" class="s1" d="m-365.9 274.1c1.4-2.9 4.4-3.9 7.2-2.5 2.9 1.5 3.8 4.3 2.4 7.3-1.4 2.7-4.3 3.7-7 2.3-2.9-1.3-4-4.3-2.6-7.1z"/>
					<path id="&lt;Path&gt;" class="s1" d="m-206.4 218.7c-2.9-1.4-3.9-4.3-2.5-7.2 1.5-2.9 4.4-3.8 7.3-2.3 2.7 1.3 3.7 4.2 2.3 7-1.3 2.8-4.3 3.9-7.1 2.5z"/>
					<path id="&lt;Path&gt;" class="s1" d="m-268.3 265c-2.8-1.4-3.7-4.3-2.2-7.2 1.4-2.8 4.3-3.6 7.3-2.2 2.4 1.1 3.5 4.9 2.2 7.1-1.6 2.8-4.4 3.8-7.3 2.3z"/>
					<path id="&lt;Path&gt;" class="s1" d="m-198.9 200.2c1.3-2.9 4.2-3.9 7.1-2.6 2.8 1.4 3.9 4.2 2.6 6.9-1.4 3-4.2 4.1-7 2.8-3-1.4-4.1-4.2-2.7-7.1z"/>
					<path id="&lt;Path&gt;" class="s1" d="m-182 186.8c2.9 1.4 3.8 4.3 2.3 7.3-1.3 2.7-4.2 3.6-6.9 2.3-2.9-1.4-4-4.3-2.6-7.1"/>
					<path id="&lt;Path&gt;" class="s1" d="m-413.9 241.9c2.6 1.3 3.5 4.9 2.2 7.5-1.1 2.1-4.7 3-7.1 2.1-1.6-0.6-2.1-2.1-2.5-3.1-0.4-1.2-0.6-2.8 0.2-4.3 0.8-1.5 2.4-1.4 3.1-2.6 1.4 0.4 3-1 4.1 0.4z"/>
					<path id="&lt;Path&gt;" class="s1" d="m-464.3 190.1c-2.5-1.2-3.8-4.7-2.6-7.2 1.1-2.3 4.5-3.5 6.9-2.7 1.6 0.6 2.4 2 2.8 3.2 0.4 1.1 0.9 2.5 0 4-1.3 2.4-4.7 3.8-7.1 2.7z"/>
					<path id="&lt;Path&gt;" class="s1" d="m-278.7 275.8c-0.9-1.1-2.1-2.2-2.5-3.4-0.4-1.2-0.2-2.8 0.4-3.9 0.6-1.1 1.8-2.4 2.9-2.6 1.3-0.3 3-0.7 4.3 0.3 1 0.8 2.3 1.9 2.5 3 0.2 1.2 0.4 2.7-0.2 4-0.7 1.4-2.1 2.1-3.3 2.7-1 0.5-2.6 0-4.1-0.1z"/>
					<path id="&lt;Path&gt;" class="s1" d="m-429.6 241.9c-0.9-1.1-2.3-2-2.5-3.1-0.3-1.3-0.7-3 0.2-4.3 0.9-1 1.9-2.3 3-2.5 1.3-0.3 3-0.7 4.3 0.3 1 0.9 2.2 1.9 2.5 3 0.2 1.2 0.4 2.7-0.2 4-0.8 1.4-2.2 2.2-3.3 2.7-1.1 0.6-2.6 0-4-0.1z"/>
					<path id="&lt;Path&gt;" class="s1" d="m-407.7 262.2c-0.9-1.1-2.1-2.2-2.5-3.4-0.4-1.2-0.2-2.8 0.4-3.9 0.6-1.1 1.8-2.4 2.9-2.6 1.3-0.2 3-0.7 4.3 0.3 1 0.8 2.3 1.9 2.5 3 0.2 1.2 0.4 2.7-0.2 4-0.7 1.4-2.1 2.1-3.3 2.7-1 0.6-2.6 0-4.1-0.1z"/>
					<path id="&lt;Path&gt;" class="s1" d="m-239.4 245c1.2-1 2.2-2.5 3.4-2.6 1.2-0.2 2.8-0.7 4 0.2 1 0.9 2.2 1.8 2.6 3 0.4 1.1 0.1 2.6-0.1 3.9-0.4 1.6-2 2.3-3.2 2.9-1 0.5-2.7 0.3-3.9-0.3-1.1-0.5-2.3-1.6-2.7-2.8-0.5-1.2-0.1-2.8-0.1-4.3z"/>
					<path id="&lt;Path&gt;" class="s1" d="m-305.2 279c2.1 1.1 3.4 5.2 2.4 7.2-1.1 2.1-5.4 3.5-7.3 2.3-2.1-1.3-3.2-4.9-2.3-7 0.8-2 5.3-3.6 7.2-2.5z"/>
					<path id="&lt;Path&gt;" class="s1" d="m-395.9 272.1c-1.9-0.6-3.7-5-2.6-7.1 1-2 4.9-3.5 6.9-2.6 2.1 0.8 3.7 4.9 2.8 7-0.9 2.1-5 3.7-7.1 2.7z"/>
					<path id="&lt;Path&gt;" class="s1" d="m-436.2 222.2c2 1.1 3.4 5.3 2.3 7.3-1.1 2-5.3 3.3-7.3 2.2-1.9-1.1-3.1-5.1-2.2-7.1 0.9-2.1 5.5-3.5 7.2-2.4z"/>
					<path id="&lt;Path&gt;" class="s1" d="m-333.6 282.4c0.8-2 5.2-3.6 7.2-2.6 1.8 1 3.4 4.5 2.5 7-0.7 2.1-4.9 3.6-7.1 2.7-2-0.9-3.6-5-2.6-7.1z"/>
					<path id="&lt;Path&gt;" class="s1" d="m-352.6 290.8c-0.8-1.1-2-1.9-2.5-3.4-0.4-1.3 0.4-2.5 0.1-3.7 1.4-0.8 2.1-2.5 3.9-2.5 1.2 0 2.7-0.3 3.3 0.3 0.9 0.9 2 1.7 2.4 3.2 0.4 1.3-0.1 2.5-0.1 3.7 0 0.5-1.1 1.2-1.6 1.7-0.7 0.8-2 1-3 1.2-0.8 0.1-1.6-0.3-2.5-0.5z"/>
					<path id="&lt;Path&gt;" class="s1" d="m-249.2 256.5c1.4-0.9 2.1-2.6 3.9-2.6 1.2 0 2.6-0.3 3.3 0.3 1.1 1 2.5 2.1 2.6 3.8 0 1.2 0.2 2.7-0.4 3.3-0.9 1-1.9 2.2-3.5 2.5-1.3 0.3-2.3-0.6-3.4-0.2-0.8-1.1-2.1-1.9-2.6-3.5-0.4-1.3 0.6-2.4 0.1-3.6z"/>
					<path id="&lt;Path&gt;" class="s1" d="m-387.1 275c0.8-0.7 1.6-1.5 2.5-2.1 1.5-1.1 3.1-0.6 4.6-0.4 0.8 0.2 1.5 1.4 2.1 2.2 1 1.4 0.8 3.1 0.5 4.6-0.1 0.8-1.2 1.6-2 2.2-1.5 1.1-3.3 0.9-4.9 0.6-0.9-0.2-1.6-1.5-2.3-2.4-1.1-1.4-0.3-3.1-0.5-4.7z"/>
					<path id="&lt;Path&gt;" class="s1" d="m-446.1 219.6c-0.2 1.9-2.1 2.2-3.6 2.4-1 0.1-2-0.8-3-1.1-1.2-0.4-1.7-1.1-2.1-2.3-0.4-1.1-0.5-2.1 0.2-3.1 0.3-0.4 0.6-0.9 0.7-1.5 0.3-1.1 1.3-1.4 2.2-1.7 0.9-0.3 1.8-0.7 2.8 0 0.4 0.4 0.9 0.6 1.5 0.8 1.1 0.3 1.7 1.1 2 2.2 0.4 1.2 0.5 2.1-0.2 3.1-0.2 0.3-0.3 0.6-0.5 1.2z"/>
					<path id="&lt;Path&gt;" class="s1" d="m-282 284.4c-1.4 3-3.2 3.6-6.3 2.1-2.9-1.5-3.5-3.2-2-6.3 1.4-3 3.2-3.5 6.3-2 3 1.4 3.5 3.2 2 6.2z"/>
					<path id="&lt;Path&gt;" class="s1" d="m-373.4 291.2q-4.2-2.1-2.2-6.3 2.1-4.2 6.3-2.1 4.2 2 2.1 6.2-2 4.2-6.2 2.2z"/>
					<path id="&lt;Path&gt;" class="s1" d="m-463.3 210.6c-2.5-0.8-3.3-4-2.2-6.3 1.1-2.3 4.1-3.3 6.3-2.2 2.4 1.1 3.3 4.1 2.2 6.4-1.1 2.3-4.2 3.5-6.3 2.1z"/>
					<path id="&lt;Path&gt;" class="s1" d="m-259.2 268c1.4-2.8 3.4-3.6 6.2-2.2 2.9 1.4 3.6 3.4 2.2 6.2-1.3 2.9-3.4 3.6-6.2 2.2-2.8-1.4-3.5-3.4-2.2-6.2z"/>
					<path id="&lt;Path&gt;" class="s1" d="m-319.3 298.9q-4.2-2.1-2.2-6.2 2-4.3 6.2-2.3 4.2 2 2.2 6.2-2 4.3-6.2 2.3z"/>
					<path id="&lt;Path&gt;" class="s1" d="m-334.7 298.4c-1.1 2.5-3.9 3.2-6.4 1.8-2.3-1.3-3.1-4-1.7-6.5 1.2-2.3 3.9-3.1 6.4-1.7 2.3 1.3 3.3 4.1 1.7 6.4z"/>
					<path id="&lt;Path&gt;" class="s1" d="m-269.1 279.3c0.1-1.3 1.2-1.7 2.5-2 1.2-0.4 2.3-1 3.7-0.1 1 0.6 1.8 1.2 2 2.4 0.3 1.2 1.2 2.3 0.3 3.7-0.7 1.1-1.2 2-2.5 2.3-1.3 0.2-2.4 1-3.8 0.2-2.2-1.2-3.3-4.1-2.2-6.5z"/>
					<path id="&lt;Path&gt;" class="s1" d="m-417 272.3c-1.3-0.2-1.7-1.3-2-2.5-0.4-1.2-1-2.3-0.1-3.7 0.6-1 1.2-1.8 2.3-2.1 1.3-0.2 2.4-1.1 3.8-0.2 1.1 0.6 2 1.1 2.3 2.5 0.2 1.3 1 2.3 0.2 3.7-1.3 2.2-4.1 3.4-6.5 2.3z"/>
					<path id="&lt;Path&gt;" class="s1" d="m-291.8 295.5c-1.2 2.6-4.2 3.4-6.5 2.5-1.5-0.7-1.6-2-2.2-3.1-0.7-1.2-0.2-2.2 0.2-3.4 0.6-1.6 2-1.6 3.1-2.1 1.1-0.6 2-0.3 3.1 0.1 1.6 0.6 1.8 1.8 2.3 3 0.4 1.2 1 2.3 0 3z"/>
					<path id="&lt;Path&gt;" class="s1" d="m-355.6 298.7c-1.2 2.5-4.2 3.4-6.5 2.4-1.5-0.6-1.6-1.9-2.2-3-0.6-1.3-0.2-2.2 0.2-3.4 0.6-1.6 2-1.6 3.1-2.1 1.1-0.6 2-0.3 3.1 0.1 1.6 0.5 1.8 1.8 2.3 3 0.4 1.1 1 2.3 0 3z"/>
					<path id="&lt;Path&gt;" class="s1" d="m-422.2 260.2c-0.3 1.8-1.8 1.7-3 2.3-1.2 0.6-2.2 0.2-3.4-0.2-1.5-0.6-1.5-2-2.1-3.1-0.7-1.3-0.1-2.2 0.3-3.4 0.5-1.6 2-1.5 3.1-2.1 1.1-0.5 2-0.2 3.1 0.2 1.6 0.5 1.7 1.8 2.2 3 0.6 1.2 0.7 2.3-0.2 3.3z"/>
					<path id="&lt;Path&gt;" class="s1" d="m-195.2 227.8c-1.4-0.2-1.9-1.3-2.2-2.5-0.3-1.2-1-2.3-0.1-3.7 0.6-1 1.1-1.8 2.3-2.1 1.3-0.2 2.4-1.1 3.8-0.3 1 0.7 2.1 1.1 2.3 2.6 0.2 1.2 1.1 2.3 0.2 3.7-0.6 1.1-1.2 2-2.6 2.3-1.2 0.2-2.4 1.1-3.7 0z"/>
					<path id="&lt;Path&gt;" class="s1" d="m-165 194.3c-2.1-1.1-3.1-4.4-2.1-6.4 1.1-2 4.5-3 6.4-1.9 1.9 1.1 2.9 4.3 2 6.2-1.2 2.3-4.7 3-6.3 2.1z"/>
					<path id="&lt;Path&gt;" class="s1" d="m-433.6 250.2c-1.1 2.1-4.4 3.1-6.3 2.1-2.1-1.1-3.1-4.5-2-6.4 1.1-1.9 4.3-2.9 6.2-2 2.2 1.2 3 4.7 2.1 6.3z"/>
					<path id="&lt;Path&gt;" class="s1" d="m-168.8 203.7c-1.1 2.1-4.4 3.1-6.4 2-2-1.1-2.9-4.5-1.8-6.4 1.1-1.9 4.3-2.8 6.2-1.9 2 1 3.1 4.4 2 6.3z"/>
					<path id="&lt;Path&gt;" class="s1" d="m-388.6 290.4c-0.7 1.7-4 3.3-6.3 2.2-1.9-0.9-3-4-2.2-6 0.8-2.1 4-3.3 6.2-2.4 2 0.8 3.3 4.1 2.3 6.2z"/>
					<path id="&lt;Path&gt;" class="s1" d="m-199.1 237.2c-1 2-4.3 3.1-6.3 2-2-1.1-3-4.4-1.9-6.4 1-1.9 4.2-2.9 6.1-1.9 2.3 1.1 3.1 4.6 2.1 6.3z"/>
					<path id="&lt;Path&gt;" class="s1" d="m-474.3 200.8c-2-1.1-3-4.4-1.9-6.4 1.1-1.9 4.5-2.9 6.4-1.8 1.9 1.1 2.8 4.3 1.9 6.2-1.1 2-4.4 3.1-6.4 2z"/>
					<path id="&lt;Path&gt;" class="s1" d="m-209 248.6c-1.2 2.2-4.7 3-6.3 2.1-2.1-1.1-3.1-4.4-2.1-6.4 1.1-1.9 4.2-2.9 6.1-2 1.8 0.7 3.3 3.9 2.3 6.3z"/>
					<path id="&lt;Path&gt;" class="s1" d="m-225.1 262.3c-2.1-0.9-3.3-4.2-2.4-6.3 0.9-1.9 4-3.1 6-2.4 2.1 0.8 3.4 4.1 2.6 6.2-0.9 2.1-4.1 3.4-6.2 2.5z"/>
					<path id="&lt;Path&gt;" class="s1" d="m-452.8 236.3c1.1-2 4.4-3.1 6.4-2 2 1.1 3 4.4 1.9 6.4-1.1 1.9-4.3 2.9-6.2 1.9-2.2-1.1-3-4.7-2.1-6.3z"/>
					<path id="&lt;Path&gt;" class="s1" d="m-399.4 280.6c-0.9 2.1-4.1 3.3-6.2 2.4-2-0.9-3.2-4-2.4-6 0.8-2.1 4-3.4 6.1-2.6 2.1 0.9 3.4 4.1 2.5 6.2z"/>
					<path id="&lt;Path&gt;" class="s1" d="m-184.9 217.3c-1.7-0.7-3.3-4-2.2-6.3 1-2 4.1-3.1 6-2.2 2.1 0.8 3.3 4.1 2.4 6.2-0.9 2-4.2 3.2-6.2 2.3z"/>
					<path id="&lt;Path&gt;" class="s1" d="m-331.6 304.1c1.3-0.6 1.6-2.3 3.1-2.3 1.1 0 2.6-0.3 3.3 0.3 0.8 0.7 2.2 1.4 2.2 2.9 0 1.1-0.1 2.2-0.2 3.3-1.3 0.2-1.3 1.8-2.7 2.2-1.2 0.2-2.3-0.7-3.4-0.2-0.4-1.2-1.9-1.5-2.4-2.9-0.3-1.2 0.8-2.2 0.1-3.3z"/>
					<path id="&lt;Path&gt;" class="s1" d="m-276.6 296.7c-0.8-0.9-1.5-1.7-2.2-2.6-0.9-1.2 0.2-2.5-0.1-3.7 1.1-0.5 1.4-1.7 2.5-2.3 1.4-0.7 2.5 0.5 3.8 0 0.3 1.2 1.7 1.4 2.2 2.6 0.6 1.3-0.6 2.3 0 3.4-0.8 0.8-1.6 1.6-2.5 2.3-1.1 1-2.5-0.4-3.7 0.3z"/>
					<path id="&lt;Path&gt;" class="s1" d="m-229.3 270.7c-1.3 0.4-1.6 2.2-3.1 2.2-1.1 0-2.7 0.3-3.2-0.3-0.8-1-2.4-1.4-2.3-3 0.1-1.1-0.2-2.7 0.4-3.3 0.9-0.7 1.4-2.3 3-2.2 1 0.1 2.4-0.2 3 0.4 0.8 0.8 2.2 1.3 2.3 2.8 0 1.2-0.1 2.3-0.1 3.4z"/>
					<path id="&lt;Path&gt;" class="s1" d="m-383.5 302.6c-0.7-1-1.7-1.9-2.1-3-0.3-1-0.3-2.5 0.2-3.3 0.6-1 1.9-1.7 3-2 1-0.3 2.4-0.3 3.3 0.1 0.9 0.5 1.6 1.7 1.9 2.7 0.4 1 0.4 2.5-0.1 3.3-0.5 1-1.7 1.9-2.8 2.3-1 0.3-2.3-0.1-3.4-0.1z"/>
					<path id="&lt;Path&gt;" class="s1" d="m-463.5 226.2c1.3-2.7 2.7-3.3 5.2-2.1 2.7 1.3 3.2 2.8 2.3 5.2-1 2.7-3.5 3.3-5.5 2.2-2.5-1.4-3.1-2.8-2-5.3z"/>
					<path id="&lt;Path&gt;" class="s2" d="m-352.3 305.8c0.7-2.3 3.3-3 5.3-1.9 2.6 1.5 3 2.8 1.8 5.6-0.9 2.2-3.4 2.8-5.4 1.6-2.4-1.3-3-2.8-1.7-5.3z"/>
					<path id="&lt;Path&gt;" class="s1" d="m-309.7 303.5c1.2-2.5 2.7-3.1 5.2-1.9 2.8 1.3 3.3 2.7 1.9 5.5-1.2 2.5-2.8 3-5.3 1.7-2.5-1.2-3.1-2.8-1.8-5.3z"/>
					<path id="&lt;Path&gt;" class="s1" d="m-281.1 305.5c-1 2.2-3.1 2.9-5.3 1.9-2.2-1.1-2.9-3.2-1.9-5.4 1.1-2.1 3.2-2.9 5.4-1.8 2.2 1 2.9 3.1 1.8 5.3z"/>
					<path id="&lt;Path&gt;" class="s1" d="m-372 311.8c-1.3-0.2-1.3-1.4-1.8-2.4-0.7-1.2 0.1-2 0.4-3 0.4-1.3 1.5-1.4 2.5-1.9 1.2-0.7 2 0.1 3 0.4 1.4 0.4 1.4 1.6 1.9 2.5 0.7 1.2-0.1 2.1-0.4 3.1-0.4 1.3-1.5 1.5-2.5 1.8-1.3 0.5-1.3 0.5-3.1-0.5z"/>
					<path id="&lt;Path&gt;" class="s1" d="m-245.4 283.6c-2.1-1.1-2.8-3.2-1.7-5.4 1.1-2.2 3.2-2.8 5.4-1.8 2.1 1.1 2.8 3.2 1.7 5.4-1 2.2-3.2 2.8-5.4 1.8z"/>
					<path id="&lt;Path&gt;" class="s1" d="m-426.7 283.1c-1.6-1-2.9-3-1.7-5.3 0.9-1.7 3-2.9 5.4-1.7 1.7 0.8 2.9 2.9 1.7 5.3-0.9 1.7-2.9 2.8-5.4 1.7z"/>
					<path id="&lt;Path&gt;" class="s1" d="m-439.8 267.7c1.2-1.9 3.3-2.7 5.4-1.6 1.9 1.1 2.7 3.3 1.6 5.3-1.1 2-3.3 2.8-5.4 1.7-1.9-1.1-2.6-3.2-1.6-5.4z"/>
					<path id="&lt;Path&gt;" class="s1" d="m-360.2 322c-1.9-1-2.8-3.5-1.8-5.4 0.9-1.9 3.4-2.7 5.3-1.8 1.9 1 2.8 3.5 1.8 5.4-0.9 1.9-3.5 2.8-5.3 1.8z"/>
					<path id="&lt;Path&gt;" class="s1" d="m-415.7 292.9c-2-1-2.8-3.6-1.9-5.3 1-2.1 3.6-2.8 5.3-1.9 2.1 1 2.8 3.6 1.9 5.3-1 2.1-3.5 2.7-5.3 1.9z"/>
					<path id="&lt;Path&gt;" class="s1" d="m-449.4 263.3c-2.1-1.1-2.9-3.2-2-5.3 0.9-2.2 3.2-2.9 5.2-2 2.2 0.9 2.9 3.1 2.1 5.2-0.9 2.2-3.1 2.8-5.3 2.1z"/>
					<path id="&lt;Path&gt;" class="s1" d="m-249.9 293.2c-1 2-3.6 2.7-5.4 1.9-2-1-2.7-3.6-1.8-5.4 1-2 3.5-2.7 5.3-1.8 2 1 2.7 3.5 1.9 5.3z"/>
					<path id="&lt;Path&gt;" class="s1" d="m-319.4 314.4c0.9-2 3.4-2.8 5.3-1.9 1.9 0.9 2.8 3.5 1.9 5.3-1 2-3.5 2.8-5.4 1.9-1.9-1-2.7-3.5-1.8-5.3z"/>
					<path id="&lt;Path&gt;" class="s1" d="m-472.9 221.5c-2.3-1.3-2.8-3.6-2-5.3 1.2-2.4 3.6-2.8 5.3-2 2.4 1.1 2.8 3.6 2 5.3-1.2 2.4-3.5 2.6-5.3 2z"/>
					<path id="&lt;Path&gt;" class="s1" d="m-340.9 315.8c1-1.9 3.5-2.8 5.4-1.8 1.9 0.9 2.7 3.5 1.8 5.3-1 1.9-3.5 2.8-5.4 1.8-1.9-0.9-2.7-3.4-1.8-5.3z"/>
					<path id="&lt;Path&gt;" class="s1" d="m-404.7 303.4c-1.9-1.2-2.8-3.3-1.6-5.4 1.1-1.9 3.3-2.7 5.3-1.6 2 1.1 2.8 3.3 1.7 5.3-1.1 2-3.2 2.7-5.4 1.7z"/>
					<path id="&lt;Path&gt;" class="s1" d="m-298.9 313.2c0.6-1.2 4.3-2.5 5.4-1.8 1.1 0.6 2.3 3.9 1.9 5.1-0.4 1.2-4 2.6-5.3 2.1-1.2-0.5-2.6-4.1-2-5.4z"/>
					<path id="&lt;Path&gt;" class="s1" d="m-395 308.2c0.5-1.2 4.1-2.5 5.4-1.9 1.1 0.5 2.3 3.8 1.9 5.1-0.3 1.2-3.9 2.6-5.3 2.2-1.2-0.5-2.5-4-2-5.4z"/>
					<path id="&lt;Path&gt;" class="s1" d="m-259.8 304.5c-0.8 1.4-4.2 2.7-5.3 2-0.7-0.3-1.2-1.2-1.5-1.9-1.3-2.5-0.4-4.5 2.4-5.2 1.9-0.5 3.2 0.1 3.9 2 0.3 1 0.4 2.2 0.5 3.1z"/>
					<path id="&lt;Path&gt;" class="s1" d="m-376.9 321.4c-1.1 2.1-2.3 2.5-4.5 1.5-2.2-1.1-2.6-2.3-1.4-4.7 1-2 2.3-2.3 4.5-1.2 2.1 1 2.4 2.2 1.4 4.4z"/>
					<path id="&lt;Path&gt;" class="s1" d="m-484.1 210.9c-2.2-1.1-2.6-2.3-1.6-4.4 1.1-2.3 2.3-2.7 4.6-1.6 2.1 1 2.4 2.3 1.4 4.5-1.1 2.1-2.3 2.5-4.4 1.5z"/>
					<path id="&lt;Path&gt;" class="s1" d="m-461.9 247.6c1-2.2 2.2-2.6 4.3-1.6 2.4 1.1 2.8 2.3 1.6 4.6-1 2.1-2.3 2.4-4.4 1.4-2.1-1.1-2.6-2.3-1.5-4.4z"/>
					<path id="&lt;Path&gt;" class="s1" d="m-188.8 246.5c-1 2.2-2.2 2.6-4.3 1.6-2.4-1.1-2.8-2.3-1.6-4.6 1-2.1 2.3-2.5 4.5-1.4 2.1 1 2.5 2.3 1.4 4.4z"/>
					<path id="&lt;Path&gt;" class="s1" d="m-328 330.2c-2.1-1-2.5-2.2-1.4-4.4 1.1-2.3 2.2-2.6 4.7-1.4 1.9 1 2.3 2.3 1.2 4.5-1 2-2.3 2.4-4.5 1.3z"/>
					<path id="&lt;Path&gt;" class="s1" d="m-173.4 225.8c-2.2-1.1-2.7-2.3-1.8-4.3 1.1-2.3 2.3-2.8 4.3-1.9 2.5 1.2 2.9 2.3 1.8 4.6-1 2.1-2.2 2.6-4.3 1.6z"/>
					<path id="&lt;Path&gt;" class="s1" d="m-183.5 237.2c-2.2-1-2.6-2.2-1.6-4.3 1.1-2.4 2.3-2.8 4.6-1.6 2.1 1 2.5 2.2 1.4 4.4-1 2.1-2.3 2.5-4.4 1.5z"/>
					<path id="&lt;Path&gt;" class="s1" d="m-203.3 259.5c-2.1-1.1-2.5-2.3-1.5-4.4 1.1-2.3 2.3-2.7 4.7-1.5 2 1 2.4 2.3 1.3 4.5-1.1 2.1-2.3 2.5-4.5 1.4z"/>
					<path id="&lt;Path&gt;" class="s1" d="m-213.9 270.6c-2.1-1-2.5-2.2-1.4-4.4 1.1-2.3 2.3-2.6 4.7-1.4 2 1.1 2.3 2.2 1.1 4.5-1 2.1-2.2 2.4-4.4 1.3z"/>
					<path id="&lt;Path&gt;" class="s1" d="m-225.3 277.6c0.8-1.6 2.7-2.3 4.4-1.5 1.8 0.9 2.5 3 1.4 4.7-1 1.6-2.6 2.2-4.4 1.3-1.6-0.8-2.2-2.9-1.4-4.5z"/>
					<path id="&lt;Path&gt;" class="s1" d="m-306.7 329.4c-1.7-0.8-2.4-2.7-1.6-4.4 0.8-1.8 2.9-2.5 4.6-1.5 1.6 0.8 2.2 2.9 1.4 4.4-0.8 1.7-2.8 2.3-4.4 1.5z"/>
					<path id="&lt;Path&gt;" class="s1" d="m-471.2 242.3c-1.6-0.7-2.4-2.7-1.6-4.3 0.8-1.9 2.4-2.4 4.2-1.8 1.9 0.7 2.7 2.8 1.8 4.6-0.8 1.6-2.7 2.3-4.4 1.5z"/>
					<path id="&lt;Path&gt;" class="s1" d="m-275.3 316.5c-1.7-0.8-2.3-2.9-1.6-4.4 0.9-1.8 3-2.5 4.7-1.5 1.5 0.8 2.1 2.9 1.3 4.4-0.8 1.6-2.8 2.3-4.4 1.5z"/>
					<path id="&lt;Path&gt;" class="s1" d="m-162.9 214.6c-1.6-0.8-2.3-2.7-1.6-4.4 0.7-1.5 2.7-2.4 4.3-1.7 1.8 0.7 2.6 2.8 1.7 4.6-0.8 1.6-2.9 2.3-4.4 1.5z"/>
					<path id="&lt;Path&gt;" class="s1" d="m-349.5 331.7c-1.5-0.9-2.1-2.9-1.4-4.5 1-2 3.5-2.2 4.7-1.4 1.5 1 2.1 3 1.2 4.6-0.8 1.5-2.9 2.1-4.5 1.3z"/>
					<path id="&lt;Path&gt;" class="s1" d="m-148.5 201.7c-0.7 1.3-3.3 2-4.6 1.4-1.2-0.7-2-3.3-1.3-4.6 0.7-1.2 3.2-2 4.5-1.3 1.3 0.7 2 3.2 1.4 4.5z"/>
					<path id="&lt;Path&gt;" class="s1" d="m-233.5 293c-1.3-0.6-2.2-3.1-1.6-4.4 0.6-1.3 3.1-2.2 4.4-1.6 1.4 0.6 2.3 3.1 1.7 4.4-0.7 1.3-3.2 2.2-4.5 1.6z"/>
					<path id="&lt;Path&gt;" class="s1" d="m-372 328.1c0.6-1.3 3.1-2.1 4.4-1.5 1.3 0.6 2.2 3.1 1.6 4.4-0.7 1.3-3.2 2.2-4.5 1.6-1.3-0.6-2.2-3.2-1.5-4.5z"/>
					<path id="&lt;Path&gt;" class="s1" d="m-413.9 313.8c-1-0.4-2.1-3.3-1.7-4.4 0.4-1 3.4-2.1 4.4-1.7 1 0.4 2.1 3.3 1.7 4.4-0.4 1-3.3 2.1-4.4 1.7z"/>
					<path id="&lt;Path&gt;" class="s1" d="m-427 299.3c0.5-0.9 3.5-2 4.5-1.5 0.9 0.4 2 3.5 1.5 4.4-0.4 1-3.5 2-4.4 1.6-1-0.5-2-3.5-1.6-4.5z"/>
					<path id="&lt;Path&gt;" class="s1" d="m-443.3 282.5c-0.4 0.9-3.4 2-4.4 1.6-1-0.4-2.1-3.4-1.6-4.5 0.4-0.9 3.4-2 4.4-1.6 1 0.4 2.1 3.4 1.6 4.5z"/>
					<path id="&lt;Path&gt;" class="s1" d="m-243.6 304.4c-0.9-0.5-1.9-3.5-1.4-4.4 0.5-1 3.5-2 4.4-1.5 1 0.5 2 3.5 1.5 4.5-0.5 0.9-3.5 1.9-4.5 1.4z"/>
					<path id="&lt;Path&gt;" class="s1" d="m-285.3 327.9c-0.9-0.4-2-3.5-1.5-4.4 0.4-1 3.5-2 4.4-1.6 1 0.5 2 3.5 1.6 4.5-0.5 0.9-3.5 2-4.5 1.5z"/>
					<path id="&lt;Path&gt;" class="s1" d="m-436.8 293.8c-0.9-0.3-2.1-3.3-1.7-4.4 0.4-0.9 3.3-2.1 4.4-1.7 1 0.4 2.1 3.3 1.7 4.4-0.3 1-3.3 2.1-4.4 1.7z"/>
					<path id="&lt;Path&gt;" class="s1" d="m-400 319c2 1 2.1 1.4 1 3.6-1 2.1-1.4 2.2-3.8 1-1.9-0.9-2-1.4-0.8-3.6 0.9-2 1.3-2.1 3.6-1z"/>
					<path id="&lt;Path&gt;" class="s1" d="m-483.6 228c1.1-2.1 1.4-2.2 3.6-1.1 2.1 1.1 2.2 1.5 1 3.9-0.9 1.8-1.4 1.9-3.6 0.8-2-1-2.1-1.3-1-3.6z"/>
					<path id="&lt;Path&gt;" class="s1" d="m-470 262.9c-1.3-0.6-1.9-2.2-1.4-3.5 0.6-1.4 2.3-2 3.7-1.3 1.2 0.6 1.8 2.3 1.2 3.5-0.6 1.3-2.3 1.9-3.5 1.3z"/>
					<path id="&lt;Path&gt;" class="s1" d="m-316 339.7c-1.3-0.5-2-2.1-1.5-3.4 0.6-1.4 2.3-2.1 3.7-1.4 1.2 0.6 1.8 2.2 1.3 3.5-0.6 1.2-2.2 1.9-3.5 1.3z"/>
					<path id="&lt;Path&gt;" class="s1" d="m-388.1 332.1c-0.6 1.3-2.1 2-3.4 1.4-1.5-0.6-2.1-2.3-1.4-3.7 0.7-1.2 2.3-1.8 3.6-1.2 1.2 0.7 1.8 2.3 1.2 3.5z"/>
					<path id="&lt;Path&gt;" class="s1" d="m-338.9 337.6c0.6-1.3 2.2-1.9 3.5-1.3 1.5 0.6 2.1 2.2 1.3 3.7-0.6 1.2-2.2 1.7-3.5 1.1-1.2-0.6-1.8-2.2-1.3-3.5z"/>
					<path id="&lt;Path&gt;" class="s1" d="m-295 338.8c-1.2-0.6-1.8-2.2-1.3-3.5 0.7-1.4 2.4-2 3.8-1.2 1.2 0.6 1.7 2.3 1.1 3.5-0.7 1.3-2.3 1.8-3.6 1.2z"/>
					<path id="&lt;Path&gt;" class="s1" d="m-253.7 315.1c-1.3-0.6-2-2.2-1.5-3.4 0.6-1.5 2.3-2.1 3.7-1.5 1.3 0.6 1.9 2.3 1.3 3.5-0.6 1.3-2.2 1.9-3.5 1.4z"/>
					<path id="&lt;Path&gt;" class="s1" d="m-360 338.5c0.5-1.3 2.1-1.9 3.4-1.4 1.5 0.6 2.1 2.3 1.4 3.7-0.6 1.2-2.3 1.8-3.5 1.2-1.3-0.6-1.9-2.2-1.3-3.5z"/>
					<path id="&lt;Path&gt;" class="s1" d="m-459.9 269.4c0.6-1.3 2.2-2 3.5-1.4 1.4 0.6 2 2.3 1.3 3.7-0.6 1.2-2.3 1.8-3.5 1.2-1.3-0.7-1.9-2.3-1.3-3.5z"/>
					<path id="&lt;Path&gt;" class="s1" d="m-493.7 221.9c-0.3-0.3-0.5-0.5-0.6-0.7-0.3-0.8-0.6-1.6-0.8-2.5-0.1-0.2 0.2-0.7 0.5-0.9 0.2-0.3 0.6-0.3 0.9-0.4 2.6-0.9 2.2-1.1 3.1 1.5 0.6 1.6 0.7 1.8-1.1 2.3-0.7 0.2-1.4 0.5-2 0.7z"/>
					<path id="&lt;Path&gt;" class="s1" d="m-265.2 323.2c0.2-0.4 0.3-0.6 0.5-0.6 0.8-0.4 1.7-0.6 2.5-0.9 0.7-0.3 1 0.1 1.2 0.7 0.2 0.7 0.6 1.4 0.7 2.2 0.1 0.3-0.1 0.9-0.3 1-0.9 0.4-1.9 0.7-2.8 1-0.2 0-0.6-0.1-0.6-0.2-0.5-1.1-0.9-2.2-1.2-3.2z"/>
					<path id="&lt;Path&gt;" class="s1" d="m-347.1 352.1c-1.3-0.6-1.7-1.4-1.2-2.6 0.5-1.3 1.3-1.7 2.4-1.3 1.5 0.6 1.9 1.5 1.3 2.8-0.6 1.3-1.3 1.6-2.5 1.1z"/>
					<path id="&lt;Path&gt;" class="s1" d="m-379.8 342.9c-1.3-0.6-1.6-1.4-1.1-2.6 0.5-1.3 1.3-1.6 2.5-1.2 1.5 0.6 1.8 1.4 1.2 2.8-0.7 1.3-1.4 1.5-2.6 1z"/>
					<path id="&lt;Path&gt;" class="s1" d="m-209.1 290c-0.6 1.3-1.3 1.5-2.6 1-1.5-0.7-1.7-1.4-0.9-2.9 0.6-1.1 1.4-1.4 2.6-0.7 1.2 0.6 1.5 1.3 0.9 2.6z"/>
					<path id="&lt;Path&gt;" class="s1" d="m-325.7 350.6c-1.3-0.6-1.7-1.4-1.2-2.6 0.6-1.3 1.4-1.7 2.5-1.2 1.5 0.6 1.9 1.4 1.3 2.7-0.6 1.3-1.4 1.6-2.6 1.1z"/>
					<path id="&lt;Path&gt;" class="s1" d="m-199.2 278.7c-0.6 1.2-1.3 1.4-2.6 0.8-1.3-0.7-1.6-1.6-0.8-2.9 0.6-1.1 1.5-1.3 2.7-0.6 1.2 0.6 1.4 1.4 0.7 2.7z"/>
					<path id="&lt;Path&gt;" class="s1" d="m-191.9 268c-1.2-0.7-1.4-1.4-0.8-2.7 0.7-1.3 1.6-1.5 2.9-0.8 1.1 0.7 1.3 1.5 0.6 2.8-0.7 1.2-1.4 1.4-2.7 0.7z"/>
					<path id="&lt;Path&gt;" class="s1" d="m-182.4 254.8c0.6-1.3 1.3-1.5 2.6-1 1.4 0.7 1.7 1.5 0.9 2.9-0.6 1.1-1.4 1.4-2.7 0.7-1.2-0.6-1.4-1.4-0.8-2.6z"/>
					<path id="&lt;Path&gt;" class="s1" d="m-172.4 243.3c0.6-1.2 1.3-1.5 2.6-0.9 1.4 0.6 1.7 1.4 0.9 2.8-0.6 1.2-1.4 1.4-2.7 0.8-1.2-0.7-1.4-1.4-0.8-2.7z"/>
					<path id="&lt;Path&gt;" class="s1" d="m-478.5 251.3c-0.6 1.2-1.4 1.6-2.6 1-1.3-0.5-1.7-1.3-1.2-2.5 0.6-1.5 1.4-1.8 2.8-1.1 1.2 0.6 1.5 1.3 1 2.6z"/>
					<path id="&lt;Path&gt;" class="s1" d="m-424.4 321.4c0.6-1.3 1.4-1.6 2.6-1.1 1.3 0.6 1.7 1.4 1.2 2.6-0.6 1.4-1.4 1.8-2.8 1.1-1.2-0.6-1.5-1.3-1-2.6z"/>
					<path id="&lt;Path&gt;" class="s1" d="m-432.1 313c-0.6 1.3-1.4 1.6-2.6 1.1-1.3-0.6-1.7-1.4-1.2-2.5 0.6-1.5 1.4-1.9 2.8-1.2 1.2 0.6 1.5 1.4 1 2.6z"/>
					<path id="&lt;Path&gt;" class="s1" d="m-409.5 332.9c-1.1 0.3-2 0.7-2.9 0.8-0.5 0.1-1.5-2.4-1-2.7 0.8-0.4 1.9-1 2.6-0.8 0.6 0.3 0.8 1.6 1.3 2.7z"/>
					<path id="&lt;Path&gt;" class="s1" d="m-458.7 290.6c1.1-0.3 2-0.7 2.9-0.8 0.5 0 1.4 2.6 0.9 2.8-0.8 0.4-1.9 1-2.6 0.7-0.6-0.3-0.8-1.6-1.2-2.7z"/>
					<path id="&lt;Path&gt;" class="s1" d="m-151.7 223.4c-0.3-1.2-0.9-2.3-0.6-2.9 0.3-0.6 1.6-0.9 2.5-1 0.5-0.1 1.4 2.5 0.9 2.8-0.8 0.4-1.7 0.6-2.8 1.1z"/>
					<path id="&lt;Path&gt;" class="s1" d="m-270.3 336.1c-1.1 0.2-2.3 0.8-2.9 0.5-0.6-0.3-0.8-1.6-0.9-2.5-0.1-0.5 2.5-1.3 2.7-0.9 0.5 0.8 0.7 1.7 1.1 2.9z"/>
					<path id="&lt;Path&gt;" class="s1" d="m-221.8 302.8c-0.4-1.1-1.1-2.2-0.9-2.8 0.3-0.7 1.5-1 2.4-1.3 0.4-0.2 1.6 2.3 1.2 2.7-0.7 0.5-1.6 0.8-2.7 1.4z"/>
					<path id="&lt;Path&gt;" class="s1" d="m-301.7 349c-1.2 0.2-2.3 0.9-2.9 0.5-0.6-0.3-0.9-1.6-1-2.5-0.1-0.5 2.5-1.3 2.8-0.8 0.4 0.8 0.7 1.7 1.1 2.8z"/>
					<path id="&lt;Path&gt;" class="s1" d="m-446.4 304.4c-0.3-1.1-0.7-2-0.9-2.9-0.1-0.5 2.5-1.5 2.7-1 0.5 0.7 1.1 1.9 0.9 2.5-0.3 0.6-1.6 0.9-2.7 1.4z"/>
					<path id="&lt;Path&gt;" class="s1" d="m-158.4 233.6c-1.1 0.4-2.2 1.2-2.8 0.9-0.7-0.3-1-1.5-1.3-2.4-0.2-0.4 2.3-1.6 2.6-1.2 0.6 0.7 0.9 1.7 1.5 2.7z"/>
					<path id="&lt;Path&gt;" class="s1" d="m-368.6 353.2c-0.3-1.2-0.7-2-0.8-3 0-0.5 2.6-1.3 2.8-0.9 0.4 0.8 1 2 0.7 2.6-0.3 0.6-1.6 0.8-2.7 1.3z"/>
					<path id="&lt;Path&gt;" class="s1" d="m-491.6 242c-1.4-0.6-1.4-0.6-0.8-1.8 0.3-0.9 0.6-1.3 1.6-0.7 1.3 0.7 1.3 0.6 0.8 1.9-0.4 0.8-0.8 1.3-1.6 0.6z"/>
					<path id="&lt;Path&gt;" class="s1" d="m-466.3 282.5c-0.2 0.9-0.6 1.2-1.6 0.7-1.3-0.7-1.3-0.6-0.8-1.9 0.4-0.8 0.7-1.2 1.7-0.7 1.3 0.7 1.3 0.7 0.7 1.9z"/>
					<path id="&lt;Path&gt;" class="s1" d="m-232.1 312.2c-1.3-0.4-0.5-1.2-0.2-1.8 0.5-1.1 0.5-1 2-0.3 1.2 0.5 0.5 1.2 0.2 1.8-0.5 1.1-0.6 1.1-2 0.3z"/>
					<path id="&lt;Path&gt;" class="s1" d="m-401 343c-1-0.3-0.8-0.9-0.4-1.7 0.6-1.2 0.6-1.1 1.9-0.5 1.1 0.4 0.9 0.9 0.5 1.7-0.6 1.2-0.6 1.2-2 0.5z"/>
					<path id="&lt;Path&gt;" class="s1" d="m-283.2 347.9c-0.1-0.9-0.5-1.6-0.3-2 0.2-0.4 1.1-0.5 1.6-0.8 0.2 0.7 0.7 1.4 0.6 2 0 0.3-1 0.5-1.9 0.8z"/>
					<path id="&lt;Path&gt;" class="s1" d="m-241.8 324.2c-0.3-0.8-0.6-1.4-0.7-1.9 0-0.6 1.5-1.3 1.8-0.8 0.4 0.4 0.8 1.2 0.7 1.6-0.2 0.4-1 0.6-1.8 1.1z"/>
					<path id="&lt;Path&gt;" class="s1" d="m-311.9 359.4c-0.9 0.3-1.8 0.7-2 0.5-0.5-0.4-0.5-1.2-0.8-1.9 0.6-0.1 1.3-0.6 1.8-0.4 0.4 0.2 0.6 1 1 1.8z"/>
					<path id="&lt;Path&gt;" class="s1" d="m-333.4 360.7c-0.8 0.3-1.3 0.7-1.9 0.7-0.6 0.1-1.2-1.4-0.8-1.8 0.4-0.4 1.2-0.7 1.6-0.6 0.4 0.2 0.6 1 1.1 1.7z"/>
					<path id="&lt;Path&gt;" class="s1" d="m-389.7 354.1c-0.3-0.9-0.6-1.4-0.6-2 0-0.6 1.5-1.2 1.9-0.7 0.3 0.4 0.7 1.2 0.5 1.7-0.2 0.4-1 0.5-1.8 1z"/>
					<path id="&lt;Path&gt;" class="s1" d="m-356.8 361.5c-0.1-0.2-0.3-0.6-0.6-1q1-0.3 2-0.6c0.1 0.6 0.6 1.2 0.4 1.7-0.4 1-1 0.1-1.8-0.1z"/>
					<path id="&lt;Path&gt;" class="s1" d="m-478.9 292.5c0.6 0 1-0.1 1.3 0.1 0.1 0.1 0.2 0.7 0.1 0.7-0.3 0.2-0.6 0.3-1 0.3-0.1 0-0.2-0.5-0.4-1.1z"/>
					<path id="&lt;Path&gt;" class="s1" d="m-434 332.8c0.6 0 1-0.1 1.3 0.1 0.1 0 0.2 0.7 0.2 0.7-0.3 0.2-0.7 0.3-1 0.3-0.2 0-0.2-0.5-0.5-1.1z"/>
					<path id="&lt;Path&gt;" class="s1" d="m-199.8 300.1c-0.1-0.6-0.4-1-0.3-1.1 0.3-0.2 0.6-0.4 1-0.4 0 0 0.4 0.5 0.3 0.7-0.2 0.2-0.5 0.4-1 0.8z"/>
					<path id="&lt;Path&gt;" class="s1" d="m-443.1 324.2c-0.6 0-1 0.2-1.1 0-0.2-0.2-0.2-0.6-0.3-1 0.3 0 0.7-0.2 0.8-0.1 0.2 0.2 0.3 0.6 0.6 1.1z"/>
					<path id="&lt;Path&gt;" class="s1" d="m-190.3 287.1c0.6 0 1-0.1 1.3 0.1 0.1 0.1 0.2 0.7 0.1 0.7-0.3 0.2-0.6 0.3-1 0.3-0.1 0-0.2-0.5-0.4-1.1z"/>
					<path id="&lt;Path&gt;" class="s1" d="m-503.4 229.8c0.6-0.1 1-0.3 1.3-0.2 0.2 0 0.2 0.5 0.4 0.7-0.4 0.2-0.7 0.4-1 0.4-0.1 0-0.3-0.4-0.7-0.9z"/>
					<path id="&lt;Path&gt;" class="s1" d="m-478 272.5c-0.7 0-1.1 0.1-1.2 0-0.2-0.3-0.2-0.7-0.3-1 0.3-0.1 0.7-0.3 0.8-0.2 0.3 0.2 0.4 0.6 0.7 1.2z"/>
					<path id="&lt;Path&gt;" class="s1" d="m-211 310c0.6-0.2 0.9-0.3 1.2-0.3 0.2 0.1 0.3 0.5 0.4 0.8-0.3 0.1-0.6 0.3-0.9 0.4-0.2 0-0.4-0.5-0.7-0.9z"/>
					<path id="&lt;Path&gt;" class="s1" d="m-180.1 277.8c-0.1-0.6-0.4-1-0.3-1.1 0.3-0.2 0.6-0.4 1-0.4 0-0.1 0.4 0.5 0.3 0.7-0.2 0.2-0.5 0.4-1 0.8z"/>
					<path id="&lt;Path&gt;" class="s1" d="m-302.1 369.6c-0.6 0-1 0.1-1.1 0-0.2-0.3-0.2-0.7-0.3-1 0.3-0.1 0.7-0.3 0.8-0.2 0.3 0.2 0.4 0.6 0.6 1.2z"/>
					<path id="&lt;Path&gt;" class="s1" d="m-467.6 302.7c0.6-0.1 1-0.3 1.3-0.2 0.2 0.1 0.2 0.5 0.4 0.7-0.4 0.2-0.7 0.4-1 0.4-0.1 0-0.3-0.4-0.7-0.9z"/>
					<path id="&lt;Path&gt;" class="s1" d="m-501.9 252.3c-0.1-0.6-0.3-1-0.2-1.3 0-0.1 0.5-0.2 0.7-0.3 0.2 0.3 0.4 0.6 0.4 0.9 0 0.2-0.4 0.3-0.9 0.7z"/>
					<path id="&lt;Path&gt;" class="s1" d="m-168.9 265.9c-0.6 0-1 0.2-1.1 0-0.2-0.2-0.2-0.6-0.3-1 0.3 0 0.7-0.2 0.8-0.1 0.3 0.2 0.4 0.6 0.6 1.1z"/>
					<path id="&lt;Path&gt;" class="s1" d="m-292.9 358.7c0-0.6-0.1-1 0.1-1.3 0-0.1 0.7-0.2 0.7-0.1 0.2 0.3 0.3 0.6 0.2 1 0 0.1-0.4 0.2-1 0.4z"/>
					<path id="&lt;Path&gt;" class="s1" d="m-159.7 255.1c0-0.7-0.1-1 0.1-1.3 0-0.2 0.7-0.3 0.7-0.2 0.2 0.3 0.3 0.7 0.2 1 0 0.1-0.4 0.2-1 0.5z"/>
					<path id="&lt;Path&gt;" class="s1" d="m-489.5 262.5c-0.6 0-1 0.1-1.1 0-0.2-0.3-0.2-0.7-0.3-1 0.3-0.1 0.6-0.3 0.8-0.2 0.2 0.2 0.3 0.6 0.6 1.2z"/>
					<path id="&lt;Path&gt;" class="s1" d="m-455.5 314c-0.1-0.6-0.3-0.9-0.2-1.2 0-0.2 0.5-0.3 0.7-0.4 0.2 0.3 0.4 0.6 0.4 1 0 0.1-0.4 0.3-0.9 0.6z"/>
					<path id="&lt;Path&gt;" class="s1" d="m-150.1 242.4c0.6-0.1 0.9-0.3 1.2-0.2 0.2 0 0.3 0.4 0.4 0.7-0.3 0.1-0.6 0.4-1 0.4-0.1 0-0.3-0.4-0.6-0.9z"/>
					<path id="&lt;Path&gt;" class="s1" d="m-270 356.9c-0.6 0.1-1.1 0.2-1.1 0.1-0.2-0.3-0.2-0.7-0.3-1 0.2-0.1 0.6-0.3 0.8-0.2 0.2 0.2 0.3 0.6 0.6 1.1z"/>
					<path id="&lt;Path&gt;" class="s1" d="m-260.3 346.1c-0.6 0-1.1 0.1-1.1 0-0.2-0.3-0.2-0.7-0.3-1 0.2-0.1 0.6-0.2 0.8-0.1 0.2 0.2 0.3 0.5 0.6 1.1z"/>
					<path id="&lt;Path&gt;" class="s1" d="m-250.2 334.4c-0.6 0.2-1 0.4-1.1 0.3-0.2-0.2-0.4-0.6-0.5-0.9 0-0.1 0.6-0.4 0.7-0.4 0.3 0.2 0.5 0.5 0.9 1z"/>
					<path id="&lt;Path&gt;" class="s1" d="m-422 344.3c-0.2-0.6-0.4-1-0.3-1.1 0.2-0.2 0.6-0.3 0.9-0.4 0.1 0 0.4 0.6 0.4 0.7-0.2 0.3-0.5 0.5-1 0.8z"/>
					<path id="&lt;Path&gt;" class="s1" d="m-230.3 333.5c0-0.6-0.1-1 0.1-1.3 0-0.2 0.7-0.2 0.7-0.2 0.2 0.3 0.3 0.7 0.3 1-0.1 0.2-0.5 0.2-1.1 0.5z"/>
					<path id="&lt;Path&gt;" class="s1" d="m-220.6 322.6c0-0.6-0.1-1 0.1-1.3 0-0.1 0.7-0.2 0.7-0.1 0.2 0.3 0.3 0.6 0.3 1-0.1 0.1-0.5 0.2-1.1 0.4z"/>
				</g>
				<path id="&lt;Path&gt;" class="s2" d="m-339.3 20.7c19.8-20.1 44.5-18.6 71.4-10.1 26.9 8.6 48.1 36.3 43.9 64.2-2.7 17.8-14.8 35.5-8.6 52.5 8.8 24.2 43.4 22.4 66.1 34.6 25.1 13.6 34.7 47 27.3 74.6-7.4 27.7-28.2 49.8-51.5 66.5-36.5 26.3-86.7 41.5-126.2 20-34.2-18.8-55.9-62.4-94.8-65.1-12.2-0.8-24.4 2.8-36.5 1.8-27.9-2.4-49.2-30.2-50.2-58.2-1.1-28 9.3-63.2 28.7-78.3 21.2-16.6 82-26.5 100.9-58.8 6.6-11.4 20.3-34.3 29.5-43.7z"/>
				<path id="&lt;Path&gt;" class="s3" d="m-487.8 267c-19.8-12-26.3-48.2-5.3-74.7 18-22.8 54.4-28.8 65.2-55.7 7.7-19.3-1.2-42.1 6.2-61.5 8.6-22.7 36.1-31.9 60.5-32.5 29.9-0.8 59.4 7 88.1 15.4 22.3 6.5 45 13.7 63.6 27.8 19 14.3 32.4 34.9 42.8 56.3 13.3 27.4 22.3 57.4 21.4 87.8-0.9 30.3-12.6 61-35.3 81.1-19.6 17.3-83.5 37.1-142.4-3.5-22.6-15.6-49.2-24.3-76.5-24.5-30.4-0.2-67.8-3.4-88.3-16z"/>
			</g>
			<path id="&lt;Path&gt;" class="s2" d="m-168.9 159.4c25 13.4 34.5 46.7 27.1 74.1-7.3 27.4-28 49.4-51.1 66-36.2 26.1-86.2 41.2-125.3 19.8-34-18.6-55.5-62-94.2-64.6"/>
		</g>
		<g id="&lt;Group&gt;">
		</g>
		<g id="&lt;Group&gt;">
			<path id="&lt;Path&gt;" class="s4" d="m220.3 63.9c10.9 8.2 1.5 1.8 7.7 13.6 9.4 17.7 27.6 29.3 44.3 41.2 20.8 15 40.6 32.1 53 53.9 12.5 21.8 16.7 49.1 6.2 72.8-13.4 30.2-47.4 48.4-80.8 56-33.4 7.7-67.9 7.2-101.5 13.1-23.6 4.1-47.1 11.4-70.8 10.4-23.7-1.1-48.6-13.2-53.9-34.8-4.3-17.2 4.9-35.7 17.4-49.7 9.7-10.8 22.1-21.1 24.7-34.9 3.5-18.9-12.9-34.6-28.7-45.7-19.9-14-43.6-29.8-34.1-58.3 4.4-13.1 14.4-24.1 27.2-30.9 45.9-24.6 115.1-25 142.8-22.5 15.5 1.4 34.5 6.9 46.5 15.8z"/>
			<g id="&lt;Group&gt;">
				<g id="&lt;Group&gt;">
					<path id="&lt;Path&gt;" class="s5" d="m30.8 197.2c-1.1-1.7-0.7-3.9 0.9-5 1.7-1.1 3.9-0.5 5.1 1.3 1.2 1.7 0.7 3.8-1 5-1.7 1.1-3.8 0.6-5-1.3z"/>
					<path id="&lt;Path&gt;" class="s5" d="m36.1 210.1c-1.1-1.6-0.7-4 1.1-4.9 1.8-1.1 3.8-0.7 4.9 1.1 1 1.6 0.4 4-1.1 4.9-1.3 0.8-3.9 0.6-4.9-1.1z"/>
					<path id="&lt;Path&gt;" class="s5" d="m257.4 292.8c1 1.6 0.6 4-1 5-1.6 1-3.9 0.5-4.9-1.1-1.1-1.7-0.6-3.7 1.1-4.8 1.7-1.1 3.7-0.7 4.8 0.9z"/>
					<path id="&lt;Path&gt;" class="s5" d="m178 298.4c-1-1.5-0.6-3.7 0.9-4.7 1.6-1.1 3.9-0.6 4.9 1 1 1.5 0.6 3.7-0.9 4.7-1.6 1.1-3.9 0.6-4.9-1z"/>
					<path id="&lt;Path&gt;" class="s5" d="m208.4 300.2c-1-1.6-0.5-3.8 1-4.8 1.6-1 3.8-0.5 4.9 1 1 1.6 0.5 3.8-1.1 4.8-1.6 1.1-3.8 0.6-4.8-1z"/>
					<path id="&lt;Path&gt;" class="s5" d="m41.2 222c-0.8-1.4-0.2-3.3 1.4-4.3 1.9-1.2 3.4-0.8 4.6 0.8 1.1 1.5 0.6 4-0.9 4.9-1.8 1.1-4.1 0.3-5.1-1.4z"/>
					<path id="&lt;Path&gt;" class="s5" d="m239.3 301.7c-1.1-1.7-0.7-3.4 0.9-4.5 1.8-1.1 3.4-0.7 4.7 1.2 1.1 1.7 0.7 3.4-1 4.5-1.7 1.1-3.3 0.7-4.6-1.2z"/>
					<path id="&lt;Path&gt;" class="s5" d="m282.7 298.6c-1.2-1.8-0.9-3.9 0.8-4.9 1.5-0.9 3.4-0.5 4.5 1.2 1.1 1.6 0.7 3.4-0.8 4.5-1.6 1-3.4 0.7-4.5-0.8z"/>
					<path id="&lt;Path&gt;" class="s5" d="m294.8 292.9c-1-1.6-0.6-3.5 1-4.5 1.7-1.1 3.5-0.5 4.6 1.3 1 1.6 0.6 3.4-1 4.4-1.7 1.1-3.4 0.7-4.6-1.2z"/>
					<path id="&lt;Path&gt;" class="s5" d="m71.4 250c1.7-1 3.5-0.5 4.6 1.3 1 1.6 0.6 3.4-1 4.4-1.7 1.1-3.5 0.7-4.6-1.2-1-1.6-0.6-3.6 1-4.5z"/>
					<path id="&lt;Path&gt;" class="s5" d="m321.1 277.7c1.6-1.1 3.5-0.6 4.7 1.2 1 1.7 0.6 3.5-1.1 4.6-1.7 1-3.4 0.5-4.5-1.3-1-1.6-0.7-3.5 0.9-4.5z"/>
					<path id="&lt;Path&gt;" class="s5" d="m226.9 307.5c-1.1-1.7-0.8-3.7 0.7-4.8 1.6-1 3.6-0.5 4.7 1.2 1 1.6 0.6 3.4-0.9 4.5-1.6 1-3.5 0.6-4.5-0.9z"/>
					<path id="&lt;Path&gt;" class="s5" d="m196.1 305.1c-1-1.5-0.5-3.6 1-4.5 1.8-1 3.5-0.5 4.7 1.4 1 1.6 0.5 3.4-1.1 4.4-1.7 1-3.5 0.6-4.6-1.3z"/>
					<path id="&lt;Path&gt;" class="s5" d="m308.6 283.1c1.7-1 3.5-0.5 4.6 1.4 1 1.6 0.6 3.4-1.1 4.4-1.6 1.1-3.4 0.6-4.5-1.2-1-1.6-0.5-3.7 1-4.6z"/>
					<path id="&lt;Path&gt;" class="s5" d="m129.6 288.8c-1-1.6-0.6-3.6 1-4.6 1.6-1 3.5-0.5 4.6 1.3 1.1 1.7 0.6 3.5-1.1 4.5-1.6 1-3.4 0.5-4.5-1.2z"/>
					<path id="&lt;Path&gt;" class="s5" d="m147.5 296.2c-0.9-1.6-0.5-3.5 1.1-4.5 1.6-1 3.5-0.5 4.5 1.1 1 1.5 0.5 3.5-1 4.5-1.6 1-3.6 0.5-4.6-1.1z"/>
					<path id="&lt;Path&gt;" class="s5" d="m19.2 197.8c1.2-1.1 3.6-0.5 4.6 1 1 1.6 0.5 3.7-1 4.6-1.5 1-3.5 0.5-4.5-1.1-1.3-1.4-0.4-3.4 0.9-4.5z"/>
					<path id="&lt;Path&gt;" class="s5" d="m93.8 274.5c-1-1.5-0.5-3.8 0.9-4.6 1.5-0.9 3.6-0.4 4.5 1.1 1 1.5 0.6 3.7-0.9 4.6-1.5 1-3.5 0.5-4.5-1.1z"/>
					<path id="&lt;Path&gt;" class="s5" d="m112.6 277.4c1.6-1 3.6-0.6 4.6 1 0.9 1.6 0.5 3.5-1.1 4.5-1.5 1-3.4 0.6-4.4-1-1-1.5-0.6-3.5 0.9-4.5z"/>
					<path id="&lt;Path&gt;" class="s5" d="m48.1 230.4c1.6-1 3.6-0.6 4.6 1 1 1.6 0.5 3.5-1 4.5-1.6 1-3.5 0.6-4.5-1-1-1.5-0.6-3.4 0.9-4.5z"/>
					<path id="&lt;Path&gt;" class="s5" d="m165.6 303.8c-1-1.5-0.7-3.4 0.9-4.4 1.6-1.1 3.4-0.8 4.4 0.8 1 1.4 0.6 3.5-0.8 4.5-1.4 1-3.5 0.5-4.5-0.9z"/>
					<path id="&lt;Path&gt;" class="s5" d="m270 303.9c-1-1.6-0.6-3.4 1-4.4 1.6-1 3.4-0.7 4.4 0.9 1 1.5 0.5 3.6-0.9 4.5-1.4 1-3.5 0.5-4.5-1z"/>
					<path id="&lt;Path&gt;" class="s5" d="m24.8 210.6c1.7-1.1 3.4-0.7 4.5 0.9 0.9 1.4 0.4 3.5-0.9 4.4-1.3 0.9-3.5 0.5-4.4-0.8-1.2-1.6-0.8-3.4 0.8-4.5z"/>
					<path id="&lt;Path&gt;" class="s5" d="m53.4 243.3c1.6-1.3 3.3-0.7 4.3 0.8 1 1.4 0.6 3.5-0.8 4.4-1.4 1-3.5 0.5-4.6-1.3-0.9-1.3-0.4-2.9 1.1-3.9z"/>
					<path id="&lt;Path&gt;" class="s5" d="m76.9 263c1.5-1 3.1-0.6 4.2 1 1 1.4 0.5 3.6-1 4.5-1.5 0.9-3.4 0.3-4.5-1.4-0.9-1.4-0.4-2.9 1.3-4.1z"/>
					<path id="&lt;Path&gt;" class="s5" d="m257.2 308.9c-1-1.4-0.5-3.1 1.1-4.1 1.6-1.2 3.3-0.7 4.3 0.9 0.9 1.4 0.5 3.5-0.8 4.4-1.5 0.9-3.5 0.4-4.6-1.2z"/>
					<path id="&lt;Path&gt;" class="s5" d="m214 312.3c-1-1.4-0.5-3 1.1-4.1 1.7-1.2 3.3-0.6 4.3 0.9 1 1.4 0.5 3.5-0.8 4.4-1.5 1-3.5 0.5-4.6-1.2z"/>
					<path id="&lt;Path&gt;" class="s5" d="m183.8 310.8c-0.9-1.4-0.5-3.3 0.8-4.3 1.5-0.9 3.5-0.5 4.4 0.9 1 1.5 0.5 3.6-1 4.4-1.4 0.9-3.4 0.4-4.2-1z"/>
					<path id="&lt;Path&gt;" class="s5" d="m244.9 314.5c-1-1.7-0.8-3.3 0.7-4.3 1.5-1 3.1-0.6 4.2 1.1 1 1.6 0.8 3.1-0.8 4.1-1.6 1-3 0.7-4.1-0.9z"/>
					<path id="&lt;Path&gt;" class="s5" d="m118.1 290c1.6-1 3.1-0.6 4.2 1.2 1.1 1.6 0.7 3-0.9 4q-2.4 1.6-4.1-1.1c-1-1.6-0.7-3.1 0.8-4.1z"/>
					<path id="&lt;Path&gt;" class="s5" d="m30 223.4c1.6-1.1 3.1-0.7 4.2 0.9q1.7 2.6-0.8 4.2c-1.6 1-3 0.7-4-0.9-1.1-1.7-0.9-3.2 0.6-4.2z"/>
					<path id="&lt;Path&gt;" class="s5" d="m135.1 301.5c-0.8-1.4-0.4-3.1 1-4 1.4-1 3.2-0.6 4.2 0.9 0.9 1.4 0.5 3.2-1 4.2-1.5 0.9-3.3 0.4-4.2-1.1z"/>
					<path id="&lt;Path&gt;" class="s5" d="m58.2 260.1c-0.9-1.4-0.6-3.4 0.7-4.3 1.2-0.8 3.2-0.4 4.1 1 1 1.5 0.7 3.2-0.7 4.1-1.5 1-3.1 0.6-4.1-0.8z"/>
					<path id="&lt;Path&gt;" class="s5" d="m154.2 304.6c1.4-0.9 3.2-0.5 4.1 0.9 0.9 1.4 0.6 3.1-0.8 4-1.4 1-3.2 0.7-4.1-0.7-1-1.4-0.7-3.3 0.8-4.2z"/>
					<path id="&lt;Path&gt;" class="s5" d="m99.4 287.3c-1-1.4-0.7-3.1 0.7-4.1 1.4-1 3.3-0.6 4.2 0.8 0.9 1.4 0.5 3.2-0.9 4.1-1.4 0.9-3.1 0.6-4-0.8z"/>
					<path id="&lt;Path&gt;" class="s5" d="m38.9 241.1c-1.5 0.9-3.2 0.4-4.2-1.3-0.8-1.2-0.4-3 0.9-3.8 1.3-1 3.3-0.4 4.2 1.1 0.8 1.3 0.4 3.2-0.9 4z"/>
					<path id="&lt;Path&gt;" class="s5" d="m314.1 295.7c1.5-0.8 3.2-0.3 4.1 1.2 0.8 1.4 0.4 3.2-0.9 4-1.4 0.9-3.2 0.4-4.2-1.2-0.8-1.3-0.3-3.3 1-4z"/>
					<path id="&lt;Path&gt;" class="s5" d="m300.5 305.2c-0.8-1.3-0.3-3.3 1-4 1.5-0.8 3.2-0.3 4.1 1.2 0.8 1.4 0.5 3.2-0.9 4-1.4 0.9-3.2 0.4-4.2-1.2z"/>
					<path id="&lt;Path&gt;" class="s5" d="m201.8 318c-0.9-1.4-0.6-3.1 0.7-4 1.4-1 3.2-0.6 4.1 0.8 1 1.3 0.6 3.1-0.8 4-1.4 1-3.1 0.6-4-0.8z"/>
					<path id="&lt;Path&gt;" class="s5" d="m171.1 315.8c-0.9-1.5-0.6-2.9 1-3.9 1.6-1 3-0.7 4 0.9 0.8 1.3 0.4 3.2-0.9 4-1.4 0.8-3.3 0.4-4.1-1z"/>
					<path id="&lt;Path&gt;" class="s5" d="m232.1 319.7c-0.9-1.6-0.6-3 1-4 1.5-1 2.9-0.7 3.9 0.8 0.9 1.4 0.5 3.3-0.8 4.1-1.3 0.9-3.2 0.4-4.1-0.9z"/>
					<path id="&lt;Path&gt;" class="s5" d="m288.1 311c-1-1.5-0.7-2.9 0.8-3.9 1.6-1.1 3-0.8 4 0.7 0.9 1.3 0.6 3.2-0.7 4.1-1.2 0.9-3.2 0.5-4.1-0.9z"/>
					<path id="&lt;Path&gt;" class="s5" d="m275.3 316c-1-1.6-0.6-2.7 1.3-3.8 1.2-0.8 2.8-0.4 3.6 0.9 0.7 1.3 0.3 3.3-0.8 4-1 0.6-3.6 0.6-4.1-1.1z"/>
					<path id="&lt;Path&gt;" class="s5" d="m67.5 273.2c-1 0.6-3.3 0.5-4-0.9-0.9-1.7-0.7-2.8 1-3.9 1.4-0.9 2.8-0.7 3.8 0.7 0.8 1.2 0.4 3.4-0.8 4.1z"/>
					<path id="&lt;Path&gt;" class="s5" d="m44.3 253.7c-1.3 0.7-3.1 0.3-3.8-1-0.9-1.2-0.4-3.1 0.9-3.9 1.3-0.7 3-0.3 3.8 0.9 0.8 1.3 0.4 3.2-0.9 4z"/>
					<path id="&lt;Path&gt;" class="s5" d="m82.5 275.9c1.4-0.9 3.2-0.4 4 1.1 0.8 1.3 0.3 3.1-1 3.9-1.4 0.8-3.1 0.3-4-1-0.8-1.4-0.4-3.2 1-4z"/>
					<path id="&lt;Path&gt;" class="s5" d="m108.8 300.6c-1.3 0.8-3 0.4-3.8-0.9-0.8-1.3-0.4-3 0.8-3.8 1.3-0.8 3-0.4 3.8 0.9 0.8 1.2 0.4 3-0.8 3.8z"/>
					<path id="&lt;Path&gt;" class="s5" d="m15.5 221.1c-1.3 0.8-3.1 0.3-4-1-0.7-1.3-0.3-2.8 1.1-3.7 1.2-0.8 2.9-0.5 3.7 0.7 0.8 1.3 0.5 3.3-0.8 4z"/>
					<path id="&lt;Path&gt;" class="s5" d="m190.1 319.5c1.3-0.8 3.1-0.4 3.8 0.8 0.8 1.3 0.5 3.1-0.7 3.9-1.3 0.9-3.2 0.4-4-0.9-0.8-1.3-0.4-2.9 0.9-3.8z"/>
					<path id="&lt;Path&gt;" class="s5" d="m219.8 324.8c-0.7-1.2-0.3-2.8 1-3.7 1.3-0.8 3.1-0.5 3.8 0.8 0.8 1.4 0.4 3.2-0.8 4-1.3 0.8-3.1 0.3-4-1.1z"/>
					<path id="&lt;Path&gt;" class="s5" d="m123.7 303.1c1.2-0.8 2.9-0.5 3.7 0.7 0.8 1.3 0.5 3.3-0.8 4.1-1.3 0.8-3.1 0.3-4-1.1-0.7-1.2-0.3-2.8 1.1-3.7z"/>
					<path id="&lt;Path&gt;" class="s5" d="m263.2 321.6c-0.8-1.3-0.5-3.1 0.8-3.9 1.3-0.8 3-0.4 3.8 0.9 0.8 1.2 0.5 2.9-0.8 3.7-1.2 0.9-3 0.5-3.8-0.7z"/>
					<path id="&lt;Path&gt;" class="s5" d="m140.9 314c-0.8-1.3-0.4-3 0.9-3.8 1.3-0.7 2.9-0.3 3.7 0.9 0.9 1.3 0.5 3-0.8 3.8-1.3 0.8-3 0.4-3.8-0.9z"/>
					<path id="&lt;Path&gt;" class="s5" d="m90.7 292.8c-1.4 1-2.7 0.6-3.6-0.8-1-1.5-0.7-2.9 0.7-3.8 1.3-0.8 2.7-0.4 3.7 1.1 0.8 1.3 0.6 2.7-0.8 3.5z"/>
					<path id="&lt;Path&gt;" class="s5" d="m159.5 317.4c1.4-0.8 2.8-0.4 3.7 1.1 0.9 1.3 0.6 2.7-0.8 3.5-1.3 0.9-2.7 0.6-3.6-0.8-0.9-1.5-0.7-3 0.7-3.8z"/>
					<path id="&lt;Path&gt;" class="s5" d="m20.9 233.6c-1.4 0.8-2.7 0.5-3.7-1-0.8-1.4-0.6-2.8 0.7-3.7 1.4-0.9 2.8-0.5 3.8 1.1 0.9 1.4 0.5 2.7-0.8 3.6z"/>
					<path id="&lt;Path&gt;" class="s5" d="m49.3 265.9c-1.3 0.9-2.8 0.5-3.7-1-0.8-1.3-0.6-2.9 0.7-3.6 1.6-0.8 2.8-0.5 3.7 1 0.8 1.3 0.6 2.8-0.7 3.6z"/>
					<path id="&lt;Path&gt;" class="s5" d="m250.6 326.7c-0.8-1.3-0.5-2.8 0.7-3.6 1.4-0.8 2.9-0.4 3.8 1 0.8 1.3 0.5 2.8-0.8 3.6-1.3 0.9-2.8 0.5-3.7-1z"/>
					<path id="&lt;Path&gt;" class="s5" d="m207.4 330.2c-0.7-1.2-0.3-3 0.8-3.7 1.2-0.7 2.9-0.2 3.7 1 0.8 1.4 0.4 2.9-0.8 3.7-1.3 0.8-2.9 0.4-3.7-1z"/>
					<path id="&lt;Path&gt;" class="s5" d="m72.6 285.8c-1.3 0.8-2.9 0.4-3.7-1-0.7-1.2-0.3-3 0.8-3.7 1.2-0.7 2.9-0.2 3.7 1 0.8 1.4 0.4 2.9-0.8 3.7z"/>
					<path id="&lt;Path&gt;" class="s5" d="m238.7 328.6c1.4-0.9 2.8-0.5 3.6 0.8 0.7 1.2 0.4 2.8-0.8 3.5-1.1 0.8-2.7 0.4-3.5-0.7-0.9-1.4-0.6-2.7 0.7-3.6z"/>
					<path id="&lt;Path&gt;" class="s5" d="m26 246c-1.2 0.8-2.8 0.5-3.6-0.8-0.8-1.3-0.6-2.6 0.7-3.4 1.3-0.9 2.7-0.7 3.6 0.6 0.8 1.2 0.5 2.8-0.7 3.6z"/>
					<path id="&lt;Path&gt;" class="s5" d="m131.9 319.9c-1.1 0.7-2.7 0.4-3.5-0.6-0.8-1.1-0.4-2.9 0.7-3.6 1.1-0.7 2.7-0.3 3.4 0.7 0.8 1.1 0.4 2.8-0.6 3.5z"/>
					<path id="&lt;Path&gt;" class="s5" d="m180.5 329.1c-1.1 0.8-2.7 0.5-3.5-0.7-0.8-1.2-0.5-2.8 0.7-3.6 1.2-0.8 2.8-0.5 3.6 0.8 0.8 1.2 0.4 2.8-0.8 3.5z"/>
					<path id="&lt;Path&gt;" class="s5" d="m306.4 317.7c-0.8-1.2-0.4-2.4 0.9-3.3 1.3-0.8 2.7-0.5 3.4 0.7 0.7 1.1 0.4 2.8-0.6 3.6-1.1 0.8-2.9 0.3-3.7-1z"/>
					<path id="&lt;Path&gt;" class="s5" d="m293.6 322.9c-0.7-1.1-0.4-2.4 0.9-3.2 1.3-0.8 2.7-0.6 3.5 0.7 0.7 1.1 0.3 2.8-0.7 3.5-1.1 0.8-2.9 0.3-3.7-1z"/>
					<path id="&lt;Path&gt;" class="s5" d="m114.1 312.6c-1.2 0.8-2.9 0.4-3.8-0.9-0.7-1.2-0.3-2.4 1-3.3 1.2-0.8 2.6-0.5 3.4 0.7 0.7 1.1 0.4 2.8-0.6 3.5z"/>
					<path id="&lt;Path&gt;" class="s5" d="m150.1 327.3c-1.2 0.7-2.9 0.2-3.7-1.1-0.6-1-0.3-2.3 0.9-3.1 1.6-1.1 2.6-0.4 3.4 0.6 0.8 1.1 0.4 2.8-0.6 3.6z"/>
					<path id="&lt;Path&gt;" class="s5" d="m95.9 305.5c-1.1 0.8-2.8 0.3-3.7-1-0.6-1-0.2-2.3 0.9-3.1 1.3-0.9 2.3-0.8 3.4 0.6 0.8 1 0.5 2.8-0.6 3.5z"/>
					<path id="&lt;Path&gt;" class="s5" d="m54.8 278.4c-1.2 0.8-2.9 0.3-3.7-1.1-0.7-1-0.3-2.3 0.9-3 1.2-0.9 2.3-0.9 3.4 0.5 0.8 1.1 0.4 2.9-0.6 3.6z"/>
					<path id="&lt;Path&gt;" class="s5" d="m281.2 328.6c-0.7-1.2-0.3-2.7 0.9-3.4 1.1-0.6 2.6-0.3 3.3 0.8 0.7 1.1 0.3 2.7-0.8 3.4-1.1 0.7-2.7 0.3-3.4-0.8z"/>
					<path id="&lt;Path&gt;" class="s5" d="m225.6 337.5c-0.9-1.5-0.8-2.5 0.5-3.4 1.3-0.9 2.3-0.6 3.3 0.9 0.9 1.4 0.7 2.3-0.7 3.2-1.3 0.8-2.2 0.6-3.1-0.7z"/>
					<path id="&lt;Path&gt;" class="s5" d="m195.5 332.1c1.4-0.9 2.4-0.6 3.3 0.9 0.9 1.3 0.7 2.3-0.7 3.2-1.3 0.8-2.2 0.5-3.2-0.9-0.8-1.4-0.6-2.4 0.6-3.2z"/>
					<path id="&lt;Path&gt;" class="s5" d="m31.3 258.3c-1.3 0.9-2.3 0.7-3.2-0.7-0.9-1.5-0.8-2.5 0.6-3.3 1.3-0.9 2.3-0.6 3.3 0.9 0.8 1.3 0.6 2.3-0.7 3.1z"/>
					<path id="&lt;Path&gt;" class="s5" d="m77.8 298.1c-1.2 0.8-2.3 0.5-3.1-0.9-0.7-1-0.4-2.5 0.6-3.2 1.1-0.7 2.5-0.4 3.3 0.9 0.8 1.3 0.5 2.5-0.8 3.2z"/>
					<path id="&lt;Path&gt;" class="s5" d="m268.8 333.9c-0.8-1.1-0.5-2.6 0.5-3.3 1.1-0.7 2.5-0.3 3.2 0.8 0.9 1.3 0.7 2.5-0.5 3.3-1.3 0.8-2.4 0.5-3.2-0.8z"/>
					<path id="&lt;Path&gt;" class="s5" d="m167.8 334.3c-1.2 0.9-2.4 0.6-3.2-0.7-0.8-1.1-0.5-2.6 0.5-3.3 1-0.7 2.5-0.4 3.2 0.8 0.9 1.3 0.7 2.4-0.5 3.2z"/>
					<path id="&lt;Path&gt;" class="s5" d="m256.8 335.7c1.1-0.6 2.7-0.2 3.3 0.9 0.7 1.1 0.3 2.7-0.8 3.3-1.1 0.5-2.5 0-3.2-1.1-0.5-1-0.1-2.6 0.7-3.1z"/>
					<path id="&lt;Path&gt;" class="s5" d="m36.4 271.2c-1 0.6-2.5 0.2-3.1-1-0.6-0.9-0.2-2.7 0.7-3.2 1-0.5 2.5-0.1 3.2 0.9 0.6 1.1 0.3 2.7-0.8 3.3z"/>
					<path id="&lt;Path&gt;" class="s5" d="m216.2 343.2c-1 0.7-2.5 0.3-3.2-0.8-0.6-1-0.3-2.7 0.7-3.3 1-0.6 2.5-0.2 3.2 0.9 0.7 1.1 0.4 2.6-0.7 3.2z"/>
					<path id="&lt;Path&gt;" class="s5" d="m185.6 341.6c-0.9 0.6-2.5 0.3-3.2-0.7-0.8-1.3-0.6-2.2 0.7-3q1.9-1.2 3 0.4c0.7 1.1 0.5 2.6-0.5 3.3z"/>
					<path id="&lt;Path&gt;" class="s5" d="m119.1 325.2c-0.9 0.6-2.5 0.3-3.2-0.7-0.8-1.3-0.6-2.2 0.7-3q1.9-1.2 3 0.4c0.7 1.1 0.5 2.6-0.5 3.3z"/>
					<path id="&lt;Path&gt;" class="s5" d="m101.3 317.9c-1 0.6-2.5 0.3-3.1-0.7-0.7-1-0.3-2.5 0.7-3.1 1-0.5 2.4-0.2 3 0.8 0.6 0.9 0.3 2.3-0.6 3z"/>
					<path id="&lt;Path&gt;" class="s5" d="m137.2 332.2c-0.9 0.7-2.4 0.4-3.1-0.6-0.7-1.1-0.5-2.3 0.7-3 1-0.7 2-0.7 2.9 0.4 0.7 1 0.5 2.5-0.5 3.2z"/>
					<path id="&lt;Path&gt;" class="s5" d="m59.8 291c-1 0.6-2.4 0.3-3.1-0.7-0.6-1-0.3-2.4 0.7-3.1 1-0.6 2.5-0.3 3.1 0.7 0.7 1 0.3 2.4-0.7 3.1z"/>
					<path id="&lt;Path&gt;" class="s5" d="m243.8 344.5c-0.7-1.1-0.5-2.3 0.7-3 1-0.7 2-0.6 2.8 0.5 0.8 1 0.5 2.5-0.4 3.2-1 0.6-2.4 0.3-3.1-0.7z"/>
					<path id="&lt;Path&gt;" class="s5" d="m83.1 310.7c-1 0.7-2.3 0.4-3-0.7q-1.1-1.7 0.7-2.8c1.2-1 2.1-0.4 2.8 0.5 0.8 1 0.5 2.3-0.5 3z"/>
					<path id="&lt;Path&gt;" class="s5" d="m42 283.6c-1 0.6-2.3 0.4-3-0.7-0.8-1.1-0.5-2.1 0.6-2.8 1.3-1 2.2-0.4 2.9 0.5 0.7 1 0.5 2.3-0.5 3z"/>
					<path id="&lt;Path&gt;" class="s5" d="m154.9 339.4c-1 0.7-2.3 0.4-3-0.7-0.7-1.1-0.5-2.1 0.6-2.7 1.4-1.1 2.3-0.5 3 0.5 0.7 1 0.4 2.3-0.6 2.9z"/>
					<path id="&lt;Path&gt;" class="s5" d="m203.5 348.4c-1 0.7-2.1 0.4-2.8-0.7-0.9-1.1-0.3-2 0.5-2.7 0.9-0.8 2.1-0.4 2.8 0.7q1.1 1.6-0.5 2.7z"/>
					<path id="&lt;Path&gt;" class="s5" d="m234 350.5c-1 0.7-2.1 0.3-2.8-0.9-0.7-1.1-0.1-2.1 0.7-2.6 1-0.6 2.1-0.5 2.8 0.8 0.6 1.1 0.4 2-0.7 2.7z"/>
					<path id="&lt;Path&gt;" class="s5" d="m173.1 346.7c-1 0.7-2.2 0.3-2.8-0.8-0.9-1.2-0.3-2.2 0.6-2.7 0.9-0.6 2.1-0.5 2.7 0.7 0.6 1.2 0.5 2.1-0.5 2.8z"/>
					<path id="&lt;Path&gt;" class="s5" d="m65.3 303.3c-1.2 0.6-2.2 0.5-2.9-0.6-0.6-1.1-0.3-2.1 0.7-2.7 1.1-0.6 2-0.4 2.7 0.6 0.7 1.1 0.3 2-0.5 2.7z"/>
					<path id="&lt;Path&gt;" class="s5" d="m106.6 330.3c-1.1 0.4-2 0.4-2.7-0.7-0.6-0.9-0.3-2 0.7-2.6 0.9-0.5 1.9-0.3 2.5 0.6 0.7 1 0.4 1.9-0.5 2.7z"/>
					<path id="&lt;Path&gt;" class="s5" d="m124.3 337.5c-0.9 0.6-2 0.3-2.6-0.7-0.7-1-0.3-1.9 0.7-2.5 1-0.6 1.8-0.4 2.5 0.6 0.5 1 0.4 2-0.6 2.6z"/>
					<path id="&lt;Path&gt;" class="s5" d="m190.9 353.8c-0.9 0.7-1.9 0.4-2.6-0.4-0.6-1-0.5-1.9 0.4-2.6 1-0.7 1.9-0.7 2.6 0.3 0.7 1 0.6 2.1-0.4 2.7z"/>
					<path id="&lt;Path&gt;" class="s5" d="m142.2 344.7c-0.9 0.7-2 0.4-2.6-0.6-0.7-0.9-0.5-1.8 0.5-2.4 0.9-0.7 1.8-0.6 2.6 0.4 0.5 1 0.5 2-0.5 2.6z"/>
					<path id="&lt;Path&gt;" class="s5" d="m47.3 296c-0.9 0.6-1.9 0.3-2.6-0.6-0.7-1-0.5-1.8 0.5-2.5 0.9-0.7 1.8-0.6 2.7 0.4 0.5 1 0.4 2-0.6 2.7z"/>
					<path id="&lt;Path&gt;" class="s5" d="m221.3 355.7c-1 0.6-2 0.2-2.7-0.6-0.6-1.2-0.3-2.1 0.7-2.7 1-0.5 1.9-0.4 2.5 0.6 0.6 1 0.4 2-0.5 2.7z"/>
					<path id="&lt;Path&gt;" class="s5" d="m88.5 323.1c-0.9 0.7-1.9 0.3-2.6-0.5-0.6-1-0.5-1.9 0.4-2.5 0.9-0.7 1.9-0.7 2.6 0.3 0.7 0.9 0.6 2-0.4 2.7z"/>
					<path id="&lt;Path&gt;" class="s5" d="m24.1 276.1c-1 0.7-2 0.4-2.7-0.6-0.7-0.9-0.5-1.8 0.4-2.4 1-0.7 1.9-0.7 2.7 0.3 0.6 1 0.5 2-0.4 2.7z"/>
					<path id="&lt;Path&gt;" class="s5" d="m70.3 315.5c-1 0.6-2.1 0.1-2.6-0.9-0.6-1.1 0-1.8 0.8-2.2 1.1-0.8 1.9-0.2 2.4 0.5 0.6 1 0.4 2.1-0.6 2.6z"/>
					<path id="&lt;Path&gt;" class="s5" d="m160.1 351.7c-1.1 0.6-1.8 0.2-2.4-0.8-0.7-0.9-0.2-1.7 0.5-2.2 1-0.6 1.8-0.4 2.4 0.7 0.6 1 0.4 1.7-0.5 2.3z"/>
					<path id="&lt;Path&gt;" class="s5" d="m251.7 357.5c-0.9 0.6-1.6 0.3-2.2-0.5-0.8-1-0.6-1.9 0.3-2.4 0.8-0.6 1.8-0.6 2.3 0.4 0.7 1 0.7 1.8-0.4 2.5z"/>
					<path id="&lt;Path&gt;" class="s5" d="m208.5 361c-0.9 0.6-1.7 0.3-2.3-0.7-0.6-0.9-0.4-1.8 0.4-2.3 0.8-0.5 1.8-0.4 2.2 0.3 0.8 1.2 0.7 2-0.3 2.7z"/>
					<path id="&lt;Path&gt;" class="s5" d="m28.9 288.4c-1 0.6-1.7 0.3-2.3-0.6-0.7-0.9-0.4-1.9 0.5-2.4 0.8-0.4 1.7-0.3 2.2 0.7 0.6 0.9 0.6 1.7-0.4 2.3z"/>
					<path id="&lt;Path&gt;" class="s5" d="m52.3 308.3c-1 0.5-1.7 0.4-2.4-0.6-0.7-1-0.4-1.8 0.5-2.4 0.8-0.5 1.6-0.3 2.2 0.6 0.6 0.9 0.6 1.7-0.3 2.4z"/>
					<path id="&lt;Path&gt;" class="s5" d="m177.9 358.9c-0.8 0.5-1.6 0.3-2.2-0.5-0.4-0.9-0.3-1.7 0.5-2.2 0.9-0.5 1.7-0.4 2.3 0.5 0.5 0.8 0.3 1.7-0.6 2.2z"/>
					<path id="&lt;Path&gt;" class="s5" d="m239.2 362.5c-0.8 0.5-1.7 0.3-2.3-0.6-0.6-0.9-0.1-1.6 0.7-2.1 0.8-0.4 1.6-0.5 2.1 0.5 0.5 0.8 0.3 1.7-0.5 2.2z"/>
					<path id="&lt;Path&gt;" class="s5" d="m111.7 342.7c-0.9 0.6-1.7 0.2-2.2-0.3-0.7-1.1-0.4-1.8 0.4-2.3 0.7-0.5 1.5-0.6 2 0.2 0.7 0.9 0.6 1.8-0.2 2.4z"/>
					<path id="&lt;Path&gt;" class="s5" d="m93.7 335.2c-0.9 0.6-1.7 0.2-2.3-0.5-0.6-1-0.3-1.7 0.5-2.2 0.8-0.5 1.5-0.5 2.1 0.3 0.6 0.9 0.5 1.8-0.3 2.4z"/>
					<path id="&lt;Path&gt;" class="s5" d="m75.5 328c-0.7 0.6-1.6 0.3-2.2-0.5-0.5-0.8-0.3-1.5 0.4-1.9 0.8-0.6 1.6-0.7 2.1 0.2 0.6 0.8 0.5 1.7-0.3 2.2z"/>
					<path id="&lt;Path&gt;" class="s5" d="m147.5 357c-0.7 0.6-1.6 0.3-2.2-0.5-0.5-0.8-0.4-1.5 0.3-1.9 0.9-0.6 1.7-0.7 2.2 0.2 0.6 0.8 0.5 1.7-0.3 2.2z"/>
					<path id="&lt;Path&gt;" class="s5" d="m129.8 349.8c-0.8 0.4-1.6 0.4-2.2-0.4-0.6-0.8-0.4-1.6 0.4-2.2 0.8-0.5 1.6-0.3 2.1 0.4 0.6 0.8 0.3 1.5-0.3 2.2z"/>
					<path id="&lt;Path&gt;" class="s5" d="m34.2 300.9c-0.7 0.5-1.4 0.2-1.9-0.5-0.4-0.9-0.3-1.6 0.6-2 0.7-0.5 1.5-0.2 1.9 0.5 0.5 0.8 0.2 1.6-0.6 2z"/>
					<path id="&lt;Path&gt;" class="s5" d="m195.9 365.8c-0.9 0.5-1.4 0.3-1.9-0.5-0.5-0.8-0.5-1.5 0.3-2 0.8-0.5 1.5-0.3 1.9 0.6 0.6 0.8 0.5 1.3-0.3 1.9z"/>
					<path id="&lt;Path&gt;" class="s5" d="m226.5 367.7c-0.7 0.6-1.3 0.5-1.8-0.3-0.5-0.8-0.7-1.4 0.1-2 0.8-0.6 1.5-0.4 2 0.4 0.5 0.8 0.7 1.4-0.3 1.9z"/>
					<path id="&lt;Path&gt;" class="s5" d="m165.2 364.1c-0.8 0.5-1.4 0.2-1.9-0.5-0.5-0.8-0.4-1.5 0.4-1.9 0.7-0.4 1.3-0.2 1.8 0.5 0.5 0.7 0.4 1.4-0.3 1.9z"/>
					<path id="&lt;Path&gt;" class="s5" d="m57.5 320.6c-0.8 0.5-1.4 0.1-2-0.7-0.3-0.7-0.2-1.4 0.6-1.8 0.8-0.4 1.4 0 1.8 0.7 0.4 0.8 0.3 1.4-0.4 1.8z"/>
					<path id="&lt;Path&gt;" class="s5" d="m116.7 354.8c-0.6 0.4-1.3 0.2-1.8-0.5-0.6-0.8-0.1-1.2 0.5-1.7 0.6-0.3 1.2-0.5 1.6 0.2 0.5 0.8 0.5 1.5-0.3 2z"/>
					<path id="&lt;Path&gt;" class="s5" d="m39.7 313.3c-0.7 0.4-1.3 0.2-1.8-0.5-0.6-0.8-0.2-1.2 0.5-1.6 0.5-0.4 1.1-0.6 1.6 0.1 0.5 0.8 0.4 1.5-0.3 2z"/>
					<path id="&lt;Path&gt;" class="s5" d="m183.3 371.1c-0.7 0.6-1.4 0.3-1.9-0.4-0.5-0.7-0.2-1.2 0.4-1.6 0.6-0.4 1.3-0.7 1.6-0.1q0.9 1.5-0.1 2.1z"/>
					<path id="&lt;Path&gt;" class="s5" d="m98.7 347.7c-0.7 0.4-1.3 0.2-1.8-0.4-0.6-0.8-0.3-1.3 0.1-1.5 1-0.7 1.5-0.8 2 0.1 0.4 0.7 0.4 1.4-0.3 1.8z"/>
					<path id="&lt;Path&gt;" class="s5" d="m80.9 340.3c-0.8 0.3-1.4 0.2-1.8-0.4-0.3-0.6-0.2-1.2 0.5-1.6 0.6-0.3 1.3-0.1 1.6 0.5 0.3 0.6 0.1 1.2-0.3 1.5z"/>
					<path id="&lt;Path&gt;" class="s5" d="m134.6 362c-0.7 0.3-1.4 0.1-1.7-0.4-0.4-0.7-0.3-1.3 0.4-1.6 0.7-0.3 1.3-0.2 1.7 0.5 0.3 0.6 0 1.1-0.4 1.5z"/>
					<path id="&lt;Path&gt;" class="s5" d="m152.9 369c-0.8 0.6-1.2 0.4-1.6-0.2-0.4-0.5-0.5-1 0.1-1.5 0.7-0.4 1.1-0.2 1.5 0.4 0.4 0.5 0.5 1 0 1.3z"/>
					<path id="&lt;Path&gt;" class="s5" d="m170.5 376.4c-0.5 0.4-1 0.2-1.4-0.3-0.4-0.6-0.1-1 0.4-1.3q0.8-0.5 1.3 0.2c0.3 0.6 0.2 1.1-0.3 1.4z"/>
					<path id="&lt;Path&gt;" class="s5" d="m104 360c-0.5 0.3-1 0.2-1.4-0.3q-0.4-0.7 0.3-1.2c0.5-0.4 1-0.5 1.3 0.1 0.4 0.6 0.3 1-0.2 1.4z"/>
					<path id="&lt;Path&gt;" class="s5" d="m44.8 325.8c-0.6 0.3-1 0.2-1.4-0.3q-0.5-0.8 0.3-1.2c0.5-0.4 0.9-0.5 1.3 0.1 0.4 0.5 0.3 1-0.2 1.4z"/>
					<path id="&lt;Path&gt;" class="s5" d="m62.9 333c-0.6 0.3-1.1 0.2-1.5-0.4-0.3-0.6-0.1-1.1 0.5-1.4 0.5-0.3 1-0.2 1.3 0.3 0.4 0.6 0.3 1.1-0.3 1.5z"/>
					<path id="&lt;Path&gt;" class="s5" d="m121.8 367.2c-0.6 0.3-1.1 0-1.4-0.5-0.3-0.5 0.2-0.7 0.5-0.9 0.3-0.2 0.7-0.5 0.9-0.2 0.4 0.7 0.4 1.2 0 1.6z"/>
					<path id="&lt;Path&gt;" class="s5" d="m86.1 352.6c-0.5 0.4-0.9 0.1-1.3-0.3-0.4-0.5 0-0.8 0.4-1 0.3-0.2 0.7-0.6 1-0.1 0.4 0.5 0.5 1.1-0.1 1.4z"/>
					<path id="&lt;Path&gt;" class="s5" d="m68 345.6c-0.5 0.2-0.9 0-1.3-0.4-0.4-0.6 0.1-0.9 0.5-1.1 0.4-0.2 0.8-0.5 1 0.2 0.2 0.5 0.2 0.9-0.2 1.3z"/>
					<path id="&lt;Path&gt;" class="s5" d="m139.9 374.3c-0.6 0.2-1 0-1.3-0.4-0.5-0.6 0.1-0.8 0.4-1.1 0.4-0.1 0.8-0.5 1.1 0.2 0.2 0.5 0.2 0.9-0.2 1.3z"/>
				</g>
			</g>
			<path id="&lt;Path&gt;" class="s5" d="m314.5 2.9c24.2 0.2 49.6 29.3 45 64.6-4 30.3-33.4 55.5-28.6 85.6 3.4 21.5 23.7 37.3 27.5 58.8 4.5 25.2-15.3 48.4-36.8 62.1-26.5 16.9-57.1 25.8-87.4 33.8-23.6 6.2-47.9 11.9-72.1 9.3-24.8-2.7-47.9-14-68.8-27.7-26.6-17.5-50.9-39.8-66.4-67.7-15.6-27.8-21.6-61.9-12-92.3 8.3-26.2 55-78.6 129.8-73.8 28.6 1.8 57.2-4.8 81.9-19.3 27.4-16.2 62.7-33.6 87.9-33.4z"/>
			<path id="&lt;Path&gt;" class="s6" d="m86 297.8c-31.3 1.7-49.8-12.9-64.7-33.2-14.9-20.3-10.4-49.7 14.5-65 15.9-9.8 39.1-14.3 47.2-28.5 11.6-20.2-17.3-38.2-26-58.5-9.6-22.6 8.5-49.1 35.7-62.5 27.2-13.4 60.9-15.9 92.3-13.6 49.3 3.6 101.2 21.8 116.1 57.3 12.8 30.9-3.5 70.6 25.5 93.9 9.1 7.2 21.5 11.7 30.5 19.1 20.4 16.9 15.9 46.4-4.8 64.7-20.7 18.3-56.1 34.8-83.2 33.7-29.7-1.2-85.9-28.7-125.9-18.7-14 3.5-42.6 10.5-57.2 11.3z"/>
			<path id="&lt;Path&gt;" class="s5" d="m93.3 289.4c-26.6-17.5-50.9-39.8-66.4-67.7-15.6-27.8-21.6-61.9-12-92.3 8.3-26.2 55-78.6 129.8-73.8"/>
		</g>
		<g id="&lt;Group&gt;">
		</g>
		<g id="&lt;Group&gt;">
			<path id="&lt;Path&gt;" class="s7" d="m644.3 30.1c19.7-19.9 44.1-18.5 70.9-10 26.7 8.5 47.8 36 43.6 63.8-2.7 17.6-14.7 35.2-8.6 52 8.8 24 43.1 22.3 65.6 34.4 25 13.5 34.5 46.7 27.2 74.1-7.3 27.4-28.1 49.4-51.1 66-36.3 26.1-86.2 41.3-125.4 19.8-34-18.6-55.5-61.9-94.2-64.6-12-0.8-24.1 2.8-36.2 1.8-27.7-2.3-48.8-30-49.8-57.8-1.1-27.8 9.2-62.7 28.4-77.8 21.1-16.4 81.6-26.2 100.3-58.3 6.6-11.3 20.1-34.1 29.3-43.4z"/>
			<g id="&lt;Group&gt;">
				<path id="&lt;Path&gt;" class="s8" d="m737.9 216.6c2.9-6.5 10.7-5 13.9-0.3 1.4 2.1 0.9 4.7 0 6.9-0.4 1-1 2.1-2.2 3"/>
				<path id="&lt;Path&gt;" class="s8" d="m720.1 165.8c3.3-0.2 5.4 1.4 6.8 4.5 1.4 2.9 0.9 5.4-1 7.8"/>
				<path id="&lt;Path&gt;" class="s8" d="m735.6 206.2c-1.7-4-0.3-7.6 3.8-9.6 4.1-1.9 7.8-0.5 9.7 3.7 2 4.1 0.5 7.7-3.7 9.8-1.8 0.9-3.5 1-5.4 0.3"/>
				<path id="&lt;Path&gt;" class="s8" d="m732.8 189.7c-1.9-3.9-0.4-7.6 3.6-9.5 4.2-2 7.8-0.7 9.8 3.6 2 4.1 0.6 7.7-3.7 9.7-4.1 2-7.7 0.5-9.7-3.8z"/>
				<path id="&lt;Path&gt;" class="s8" d="m711.6 160.3c-1.9-3.8-0.1-8.1 3.5-9.9 3.5-1.6 8-0.3 9.8 3.7 1.7 3.7 0.2 8.1-3.8 9.7"/>
				<path id="&lt;Path&gt;" class="s8" d="m754.5 220.3c-1.6-3.5-0.3-8 3.6-9.8 3.7-1.6 8.1-0.2 9.8 3.7 1.6 3.9 0.2 7.7-3.5 9.6-3.9 2-8.2 0-9.9-3.5z"/>
				<path id="&lt;Path&gt;" class="s8" d="m695.8 136.9c3.6-1.7 8.1-0.3 9.7 3.7 1.7 3.9 0.3 7.6-3.5 9.5"/>
				<path id="&lt;Path&gt;" class="s8" d="m739.9 177.7c-3.8 1.6-8 0.1-9.7-3.8-1.6-4 0.1-8 3.9-9.7 3.5-1.6 7.9 0.1 9.5 3.7 1.7 3.6 0.3 8-3.7 9.8z"/>
				<path id="&lt;Path&gt;" class="s8" d="m767.2 240.3c-3.5 1.7-8 0.4-9.8-3.6-1.7-3.6-0.2-8.1 3.7-9.7 3.9-1.6 7.7-0.2 9.6 3.5 2 3.9 0 8.2-3.5 9.8z"/>
				<path id="&lt;Path&gt;" class="s8" d="m760.3 253c-1.6-4-0.2-7.6 3.6-9.5 3.4-1.7 7.9-0.4 9.8 3.6 1.6 3.7 0.2 8.1-3.8 9.8-3.8 1.6-8.1 0.1-9.6-3.9z"/>
				<path id="&lt;Path&gt;" class="s8" d="m765.7 259.7c3.9-2 8.2 0 9.9 3.5 1.6 3.5 0.3 8-3.6 9.8"/>
				<path id="&lt;Path&gt;" class="s8" d="m624.2 114.6c3.2-1.5 8.2 0.1 9.7 3.2"/>
				<path id="&lt;Path&gt;" class="s8" d="m764.9 197.6c1.6 3.4-0.3 8.3-3.7 9.9-3.2 1.4-8.1-0.5-9.6-3.7-1.5-3.3 0.4-8.3 3.8-9.8 3.1-1.5 8.1 0.5 9.5 3.6z"/>
				<path id="&lt;Path&gt;" class="s8" d="m768.4 276.3c3.3-1.7 8.4-0.1 10 3.2 1.6 3.2 0 8.2-3.1 9.8"/>
				<path id="&lt;Path&gt;" class="s8" d="m637.4 121.7c-1.7-3.1 0.1-8.4 3.3-10 3-1.5 8.1 0.1 9.7 3.2 1.7 3.1 0 8.3-3.3 10"/>
				<path id="&lt;Path&gt;" class="s8" d="m718.5 147.2c-3.1 1.5-8.1-0.2-9.7-3.3-1.7-3.1 0.1-8.4 3.4-9.9 3-1.5 8 0.2 9.7 3.3 1.6 3.1-0.2 8.4-3.4 9.9z"/>
				<path id="&lt;Path&gt;" class="s8" d="m763 181.5c1.5 3.2-0.5 8.5-3.7 9.8-3.2 1.3-8.2-0.5-9.6-3.6-1.5-3.3 0.5-8.5 3.7-9.9 3.2-1.3 8.2 0.6 9.6 3.7z"/>
				<path id="&lt;Path&gt;" class="s8" d="m740.7 151.4c1.5 3.2-0.5 8.5-3.7 9.8-3.2 1.4-8.1-0.5-9.6-3.6-1.5-3.2 0.4-8.5 3.7-9.8 3.2-1.4 8.1 0.5 9.6 3.6z"/>
				<path id="&lt;Path&gt;" class="s8" d="m689.5 124.2c1-1.4 2-3.2 3.4-3.7 1.7-0.5 3.8-0.9 5.7 0 1.7 0.9 2.7 2.4 4.1 3.6-0.4 1.9 0.8 4-0.4 5.8-0.9 1.4-2.2 2.6-3.2 3.8"/>
				<path id="&lt;Path&gt;" class="s8" d="m750.7 162.1c4.1-1.9 6.8-0.9 8.8 3.3 1.9 4.1 0.8 6.8-3.5 8.8q-5.7 2.6-8.5-3.3c-2-4.1-0.9-6.9 3.2-8.8z"/>
				<path id="&lt;Path&gt;" class="s8" d="m774.4 233.3c-1.8-3.9-0.6-6.7 3.8-8.7 3.7-1.7 6.5-0.6 8.4 3.5 1.9 4 0.8 6.8-3.5 8.8-3.9 1.8-6.7 0.7-8.7-3.6z"/>
				<path id="&lt;Path&gt;" class="s8" d="m783.7 211.6c1.9 4 0.8 6.8-3.4 8.8-4 1.8-6.8 0.7-8.7-3.6-1.8-3.8-0.7-6.6 3.3-8.5 4.1-1.9 6.8-0.9 8.8 3.3z"/>
				<path id="&lt;Path&gt;" class="s8" d="m654.7 118.9c-1.8-4-0.9-6.9 2.9-8.7 4.3-2 7.1-1.1 9 2.8 2 4.3 1.1 7.1-3 9"/>
				<path id="&lt;Path&gt;" class="s8" d="m788.7 244.7c2 4.1 1 6.9-3.1 8.9-4 1.9-6.9 0.8-8.8-3.3-1.9-4-0.9-6.8 3-8.6 4.2-2 7-1.1 8.9 3z"/>
				<path id="&lt;Path&gt;" class="s8" d="m772.5 192.5c1.4-1.8 3.5-0.9 4.9-0.5 1.7 0.5 3 2 3.9 3.8 0.9 1.9 0.7 3.7 0.2 5.1-0.6 1.6-1.9 3-3.9 3.8-1.8 0.8-3.6 0.6-5.1 0.1-1.4-0.5-2.7-1.8-3.6-3.5-0.9-1.9-0.8-3.7-0.3-5.1 0.6-1.6 1.5-3.6 3.9-3.7z"/>
				<path id="&lt;Path&gt;" class="s8" d="m783.1 258.1c1.5-1.8 3.5-0.9 5-0.5 1.6 0.5 2.9 2 3.8 3.8 1 1.9 0.7 3.7 0.2 5.1-0.6 1.6-1.9 3-3.8 3.8-1.9 0.8-3.7 0.6-5.1 0.1-1.5-0.5-2.7-1.8-3.6-3.5-1-1.9-0.8-3.7-0.3-5.1 0.5-1.6 1.5-3.6 3.8-3.7z"/>
				<path id="&lt;Path&gt;" class="s8" d="m585.7 107.9c0.6-1.5 1.5-3.6 3.9-3.6 1.5-1.9 3.5-0.9 5-0.5 1.6 0.5 2.9 1.9 3.8 3.8 0.9 1.8 0.7 3.6 0.2 5.1"/>
				<path id="&lt;Path&gt;" class="s8" d="m737 135.2c1.7 1.6 1.1 3.7 0.5 5.3-0.5 1.5-1.8 2.8-3.5 3.7-1.9 0.9-3.6 0.8-5.1 0.3-1.7-0.5-3-1.9-3.9-3.7-1-1.9-0.8-3.7-0.3-5.1 0.5-1.4 1.5-3 3.5-3.7 1.7-0.8 3.6-1.1 5-0.5 1.6 0.6 3.7 1.4 3.8 3.7z"/>
				<path id="&lt;Path&gt;" class="s8" d="m671 115.7c-1.3-1.9-0.2-3.4 0.2-5.1 0.4-2 1.7-2.7 3.2-3.5 1.8-1.1 3.4-0.7 5.1 0 2.6 1 2.6 0.9 3.9 3.7 1.4 1.4 0.3 3-0.1 4.8-0.5 2-1.9 2.7-3.5 3.7"/>
				<path id="&lt;Path&gt;" class="s8" d="m778.2 179.3c1.5 3.2-0.1 7.2-3.4 8.8-3.2 1.4-7.3-0.3-8.7-3.6-1.4-3 0.2-7.1 3.3-8.5 3.2-1.5 7.3 0 8.8 3.3z"/>
				<path id="&lt;Path&gt;" class="s8" d="m614.6 104.3c1.6 3.3 0.2 7.4-3 9-3.1 1.4-7.3 0.1-8.7-2.9-1.7-3.2-0.4-7.4 2.7-9 3.3-1.6 7.4-0.2 9 2.9z"/>
				<path id="&lt;Path&gt;" class="s8" d="m718.4 121.4c1.5 3.2 0 7.3-3.3 8.8-3.2 1.4-7.3-0.1-8.8-3.5-1.3-3 0.2-7.1 3.2-8.5 3.3-1.6 7.4-0.1 8.9 3.2z"/>
				<path id="&lt;Path&gt;" class="s8" d="m628 110.4c-3.2 1.5-7.3 0-8.8-3.3-1.5-3.2 0-7.2 3.3-8.8 3.1-1.4 7.1 0.1 8.6 3.2 1.6 3.2 0.1 7.3-3.1 8.9z"/>
				<path id="&lt;Path&gt;" class="s8" d="m756.5 148.8c1.5 3.2 0 7.3-3.2 8.8-3.3 1.5-7.3 0-8.8-3.3-1.4-3.1 0.1-7.2 3.1-8.6 3.3-1.6 7.4-0.2 8.9 3.1z"/>
				<path id="&lt;Path&gt;" class="s8" d="m699 107.8c1.5 3.2 0 7.3-3.3 8.8-3.3 1.5-7.3-0.1-8.8-3.5-1.3-3 0.2-7.1 3.3-8.5 3.2-1.5 7.3-0.1 8.8 3.2z"/>
				<path id="&lt;Path&gt;" class="s8" d="m644.1 108.4c-3.2 1.6-7.3 0.1-8.8-3.2-1.5-3.2 0.1-7.3 3.4-8.8 3-1.4 7.1 0.1 8.5 3.2 1.6 3.2 0.2 7.3-3.1 8.8z"/>
				<path id="&lt;Path&gt;" class="s8" d="m794.3 277.1c1.5 3.3 0 7.3-3.3 8.8-3.2 1.5-7.3-0.1-8.8-3.4-1.3-3 0.2-7.1 3.3-8.6 3.2-1.5 7.3 0 8.8 3.2z"/>
				<path id="&lt;Path&gt;" class="s8" d="m776 162.5c1.4 3.2-0.1 7.2-3.5 8.8-3.1 1.4-7.2-0.3-8.7-3.6-1.3-3 0.3-7.1 3.3-8.5 3.3-1.5 7.3 0 8.9 3.3z"/>
				<path id="&lt;Path&gt;" class="s8" d="m753.5 132.1c1.6 3.5-0.1 7.7-3.2 9.1-3.3 1.3-7.6-0.3-8.7-3.5-0.5-1.6-0.8-3.3 0-5.1 0.7-1.6 1.8-2.7 3.2-3.4 1.6-0.7 3.3-0.8 5.1-0.2 1.8 0.6 2.6 2.1 3.6 3.1z"/>
				<path id="&lt;Path&gt;" class="s8" d="m784.9 294.6c0.5-2 2.2-2.9 3.4-4.3 1.8-0.1 3.4-0.9 5.1-0.1 1.2 0.6 3.4 2.4 3.8 3.4 1.4 3.1 0 7.1-3 8.7"/>
				<path id="&lt;Path&gt;" class="s8" d="m799.1 234.2c-2.7 1.2-7.7-0.7-8.8-3.4-1.1-2.7 0.9-7.7 3.5-8.7 2.6-1 7.4 0.8 8.6 3.3 1.2 2.6-0.6 7.6-3.3 8.8z"/>
				<path id="&lt;Path&gt;" class="s8" d="m800.1 208.4c1.3 2.5-0.4 7.6-3.1 8.9-2.4 1.2-7.2-0.3-8.7-2.8-1.4-2.4 0.2-7.5 2.8-9 2.5-1.3 7.6 0.3 9 2.9z"/>
				<path id="&lt;Path&gt;" class="s8" d="m663.7 96.6c1.3 2.6-0.4 7.7-3.1 8.9-2.5 1.2-7.3-0.4-8.7-2.9-1.3-2.4 0.3-7.5 2.9-8.9 2.5-1.4 7.6 0.3 8.9 2.9z"/>
				<path id="&lt;Path&gt;" class="s8" d="m731.6 127.2c-2.7 1.2-7.7-0.7-8.8-3.3-1.1-2.8 0.9-7.8 3.5-8.8 2.6-1 7.4 0.8 8.6 3.3 1.2 2.7-0.6 7.7-3.3 8.8z"/>
				<path id="&lt;Path&gt;" class="s8" d="m796.4 238.7c1.6-0.1 3.4-0.6 4.9-0.1 1.5 0.6 3.1 1.9 3.8 3.2 0.7 1.4 0.7 3.5 0.2 5-0.5 1.5-1.9 3-3.3 3.7-1.2 0.7-3.2 0.7-4.6 0.3-1.5-0.6-3.1-1.8-3.8-3.1-0.7-1.4-0.8-3.5-0.4-5 0.5-1.5 2-2.6 3.2-4z"/>
				<path id="&lt;Path&gt;" class="s8" d="m769.8 154.8c-1.7 0-3.6 0.4-5.1-0.2-1.4-0.5-3-1.9-3.6-3.3-0.6-1.4-0.6-3.5 0-5 0.6-1.4 2-3 3.4-3.6 1.4-0.6 3.5-0.4 5 0.1 1.3 0.5 2.8 1.8 3.4 3.1 0.6 1.5 0.6 3.5 0.1 5-0.6 1.5-2.1 2.6-3.2 3.9z"/>
				<path id="&lt;Path&gt;" class="s8" d="m794.4 201.6c-1.7 0-3.6 0.5-5-0.1-1.5-0.5-3.1-1.9-3.7-3.3-0.7-1.4-0.6-3.4-0.1-4.9 0.6-1.5 2-3 3.4-3.7 1.2-0.6 3.2-0.6 4.6-0.1 1.5 0.6 3.1 1.8 3.8 3.2 0.6 1.4 0.7 3.5 0.2 5-0.6 1.5-2.1 2.6-3.2 3.9z"/>
				<path id="&lt;Path&gt;" class="s8" d="m715.6 104.8c0 1.8 0.4 3.6-0.1 5.1-0.6 1.4-2 3-3.4 3.6-1.4 0.7-3.5 0.6-4.9 0.1-1.5-0.6-3-2-3.6-3.4-0.7-1.3-0.7-3.3-0.1-4.6 0.6-1.5 1.8-3.2 3.2-3.8 1.4-0.5 3.4-1 5-0.2 1.4 0.8 2.6 2.1 3.9 3.2z"/>
				<path id="&lt;Path&gt;" class="s8" d="m676.5 102.1c-1.3 1.2-2.7 0.6-4.3 0.2-2-0.4-2.5-1.9-3.4-3.4-0.9-1.5-0.5-2.8-0.2-4.4 0.5-2.1 2.1-2.5 3.5-3.3 1.5-1 2.9-0.6 4.4-0.1 1.8 0.5 2.4 1.7 3.2 3.1 0.8 1.5 0.8 2.8 0.3 4.5-0.6 1.8-1.7 2.8-3.5 3.4z"/>
				<path id="&lt;Path&gt;" class="s8" d="m750.4 117.1c1.2 1.3 0.7 2.7 0.3 4.3-0.4 2-1.9 2.5-3.4 3.4-1.5 0.9-2.8 0.5-4.4 0.2-2.1-0.5-2.5-2.1-3.4-3.5-0.9-1.6-0.6-2.9-0.1-4.5 0.5-1.7 1.8-2.4 3.2-3.1 1.5-0.8 2.8-0.8 4.4-0.3 1.9 0.6 2.8 1.7 3.4 3.5z"/>
				<path id="&lt;Path&gt;" class="s8" d="m787.9 168c-1.2 1.2-2.6 0.6-4.2 0.3-2.1-0.5-2.6-2-3.4-3.4-0.9-1.6-0.6-2.9-0.2-4.5 0.4-2.1 2-2.4 3.5-3.3 1.5-1 2.8-0.6 4.4-0.1 1.8 0.5 2.4 1.7 3.1 3.1 0.8 1.5 0.9 2.8 0.4 4.5-0.6 1.9-1.8 2.8-3.6 3.4z"/>
				<path id="&lt;Path&gt;" class="s8" d="m786.1 173.9c1.4-1.1 2.8-1.1 4.4-0.6 1.8 0.6 2.8 1.7 3.5 3.3 0.7 1.5 0.9 2.8 0.4 4.4-0.6 1.9-1.8 2.7-3.4 3.5-1.5 0.8-2.8 0.8-4.4 0.3-1.7-0.6-2.6-1.5-3.3-3.1-0.7-1.6-1.1-3-0.3-4.8 0.7-1.5 1.4-2.7 3.1-3z"/>
				<path id="&lt;Path&gt;" class="s8" d="m799.7 255.9c1.4-1 2.7-1 4.4-0.5 1.8 0.6 2.7 1.6 3.5 3.3 0.7 1.5 0.9 2.8 0.3 4.4-0.5 1.9-1.7 2.7-3.3 3.5-1.5 0.8-2.8 0.8-4.5 0.2-1.6-0.5-2.5-1.5-3.2-3-0.7-1.6-1.1-3-0.3-4.8 0.6-1.6 1.4-2.7 3.1-3.1z"/>
				<path id="&lt;Path&gt;" class="s8" d="m554.4 94c3.2-1.6 6.4-0.4 7.9 2.7"/>
				<path id="&lt;Path&gt;" class="s8" d="m761.9 127.6c3.2-1.5 6.4-0.4 7.9 2.8 1.4 3.2 0.2 6.4-3 7.9-3.1 1.3-6.2 0.2-7.7-2.8-1.5-3.2-0.4-6.4 2.8-7.9z"/>
				<path id="&lt;Path&gt;" class="s8" d="m807.3 282.3c-3.2 1.5-6.4 0.3-7.9-2.9-1.4-3.2-0.2-6.3 3.1-7.8 3-1.4 6.1-0.2 7.6 2.8 1.5 3.2 0.4 6.4-2.8 7.9z"/>
				<path id="&lt;Path&gt;" class="s8" d="m728.9 110.6c-3.2 1.6-6.2 0.4-7.9-2.6-1.4-2.5-0.2-6.6 2.5-7.8 3.3-1.5 6.5-0.6 8 2.5 1.6 3.2 0.6 6.4-2.6 7.9z"/>
				<path id="&lt;Path&gt;" class="s8" d="m644.4 83.3c1.5 3.1 0.3 6.3-3 7.8-3.1 1.4-6.3 0.1-7.8-3.2-1.3-2.9-0.1-6.1 3-7.5 3.1-1.5 6.3-0.4 7.8 2.9z"/>
				<path id="&lt;Path&gt;" class="s8" d="m625 93.9c-3.2 1.5-6.3 0.3-7.8-3-1.4-3.1-0.2-6.3 3.1-7.8 3-1.3 6.2-0.1 7.6 3 1.5 3.1 0.3 6.4-2.9 7.8z"/>
				<path id="&lt;Path&gt;" class="s8" d="m786 151.1c-3.2 1.5-6.4 0.3-7.8-2.9-1.5-3.2-0.3-6.3 3-7.8 3-1.4 6.1-0.2 7.6 2.8 1.5 3.2 0.4 6.4-2.8 7.9z"/>
				<path id="&lt;Path&gt;" class="s8" d="m611.1 88.3c1.5 3.2 0.3 6.4-2.9 7.9-3.2 1.4-6.3 0.2-7.8-3-1.4-3.1-0.2-6.2 2.8-7.7 3.2-1.5 6.4-0.4 7.9 2.8z"/>
				<path id="&lt;Path&gt;" class="s8" d="m696.1 91.4c1.5 3.2 0.3 6.3-3 7.8-3.2 1.4-6.2 0-7.8-3.2-1.3-2.6 0.3-6.6 3-7.6 3.3-1.3 6.4-0.3 7.8 3z"/>
				<path id="&lt;Path&gt;" class="s8" d="m591.9 99c-3.2 1.5-6.4 0.4-7.9-2.7-1.4-3.1-0.4-6.3 2.5-7.8 3.3-1.6 6.5-0.6 8 2.5 1.6 3.3 0.6 6.5-2.6 8z"/>
				<path id="&lt;Path&gt;" class="s8" d="m568.1 98.7c-1.5-3.2-0.2-6.3 3-7.8 3.1-1.3 6.2-0.2 7.6 2.8 1.6 3.2 0.5 6.4-2.7 7.9"/>
				<path id="&lt;Path&gt;" class="s8" d="m804.9 211.9c-1.3-2.9 0.4-6.7 3.3-8 2.4-1 6.1 0.7 7.5 3.2 1 1.6 0.4 3.2 0 4.3-0.5 1.3-1.3 2.8-3.1 3.6-1.7 0.7-3-0.4-4.5 0-0.9-1.3-3.3-1.2-3.2-3.1z"/>
				<path id="&lt;Path&gt;" class="s8" d="m812.3 291.1c1.3 2.8 0 6.7-2.7 8-2.6 1.2-6.3-0.1-7.8-2.5-1-1.6-0.7-3.4-0.2-4.7 0.4-1.1 1-2.7 2.7-3.4 2.8-1.1 6.7 0 8 2.6z"/>
				<path id="&lt;Path&gt;" class="s8" d="m712.5 89.3c0 1.6 0.3 3.4-0.2 4.7-0.5 1.3-1.8 2.5-3.1 3.1-1.2 0.5-3.1 0.8-4.2 0.2-1.3-0.7-3.1-1.5-3.5-3.2-0.2-1.4-0.6-3.2 0-4.3 0.6-1.2 1.4-2.6 2.9-3.3 1.5-0.8 3.2-0.4 4.7-0.1 1.2 0.3 2.2 1.8 3.4 2.9z"/>
				<path id="&lt;Path&gt;" class="s8" d="m818.4 222.7c0 1.6 0.6 3.3 0 4.5-0.7 1.3-1.5 3-3.2 3.4-1.4 0.3-3.2 0.7-4.3 0.1-1.3-0.7-3.1-1.4-3.4-3.2-0.3-1.4-0.7-3.2-0.1-4.3 0.7-1.2 1.5-2.6 3-3.3 1.5-0.7 3.3-0.3 4.7 0 1.2 0.3 2.2 1.8 3.3 2.8z"/>
				<path id="&lt;Path&gt;" class="s8" d="m813.6 190.2c0 1.6 0.4 3.3-0.2 4.7-0.5 1.2-1.8 2.5-3 3-1.3 0.6-3.2 0.8-4.3 0.2-1.3-0.7-3.1-1.4-3.4-3.2-0.3-1.4-0.7-3.2-0.1-4.3 0.6-1.1 1.4-2.6 2.9-3.3 1.6-0.7 3.3-0.3 4.7 0 1.3 0.2 2.2 1.8 3.4 2.9z"/>
				<path id="&lt;Path&gt;" class="s8" d="m657.5 88.6c-1.7 0-3.5 0.6-4.7-0.1-1.2-0.7-2.9-1.3-3.2-3-0.3-1.4-0.7-3-0.2-4.3 0.4-1.3 1.7-2.4 2.8-3.3 1.4-1.1 3.3-0.6 4.7-0.3 1.2 0.3 2.5 1.7 3.1 2.9 0.7 1.2 0.9 3 0.5 4.3-0.5 1.4-1.9 2.5-3 3.8z"/>
				<path id="&lt;Path&gt;" class="s8" d="m737.5 105c-1.1-2.4 0.6-6.9 2.9-7.9 2.4-1 6.9 0.8 7.8 3.1 0.9 2.6-0.7 6.4-2.9 7.6-2.1 1.1-7-0.6-7.8-2.8z"/>
				<path id="&lt;Path&gt;" class="s8" d="m810.4 173.6c1.2 1.8-0.3 6.8-2.7 7.9-2.2 1-6.6-0.5-7.8-2.6-1.2-2.1 0.3-6.7 2.5-8 2.2-1.1 6.8 0.4 8 2.7z"/>
				<path id="&lt;Path&gt;" class="s8" d="m810.4 244.2c-1-2.4 0.7-6.9 3-7.8 2.4-1 6.9 0.8 7.8 3.1 0.9 2.3-0.8 6.5-2.9 7.6-2.3 1.1-7.2-0.8-7.9-2.9z"/>
				<path id="&lt;Path&gt;" class="s8" d="m764.1 121.7c-2 1.1-6.9-0.6-7.9-2.8-0.9-2.1 0.2-6.2 2.6-7.7 2.1-1.3 6.8 0.3 8 2.5 1.1 2.3-0.4 6.8-2.7 8z"/>
				<path id="&lt;Path&gt;" class="s8" d="m786.2 127.6c0 1.5 0.5 3-0.2 4.7-0.6 1.3-2 1.8-2.7 3-1.7-0.2-3.5 0.7-5.1-0.5-0.9-0.8-2.5-1.6-2.5-2.5-0.2-1.4-0.6-2.9 0.1-4.5 0.6-1.4 1.8-2 2.6-3 0.4-0.5 1.8-0.3 2.6-0.4 1.1-0.2 2.4 0.5 3.4 1.1 0.7 0.4 1.2 1.4 1.8 2.1z"/>
				<path id="&lt;Path&gt;" class="s8" d="m673.9 85.5c-1.8-0.2-3.6 0.7-5.2-0.5-0.9-0.8-2.4-1.5-2.6-2.5-0.3-1.6-0.7-3.5 0.5-5.1 0.7-0.9 1.6-2.4 2.5-2.5 1.5-0.2 3.2-0.6 4.8 0.3 1.2 0.6 1.5 2.1 2.8 2.5-0.1 1.5 0.4 3.1-0.2 4.7-0.6 1.5-2.2 1.8-2.6 3.1z"/>
				<path id="&lt;Path&gt;" class="s8" d="m804.8 165c-1.1 0-2.4 0.1-3.6 0.1-2-0.1-3.1-1.7-4.2-2.9-0.5-0.7-0.3-2.2-0.3-3.3 0.2-1.9 1.5-3.2 2.8-4.3 0.7-0.6 2.2-0.5 3.3-0.5 2 0.1 3.4 1.5 4.5 2.9 0.7 0.8 0.4 2.4 0.4 3.6-0.1 2-1.9 2.9-2.9 4.4z"/>
				<path id="&lt;Path&gt;" class="s8" d="m817.1 253.3c1.5-1.5 3.3-0.5 4.8 0.4 0.8 0.5 1.1 2 1.8 3 0.7 1.1 0.6 2.2 0.2 3.4-0.5 1.3-1.1 2.1-2.4 2.5-0.5 0.2-1.1 0.4-1.6 0.8-1.1 0.8-2 0.4-3.1 0-1-0.4-2-0.7-2.3-2-0.1-0.5-0.4-1.1-0.8-1.6-0.7-1.1-0.6-2.2-0.2-3.4 0.5-1.3 1.1-2.1 2.3-2.5 0.4-0.1 0.7-0.3 1.3-0.6z"/>
				<path id="&lt;Path&gt;" class="s8" d="m721.3 84.2c3.3-1.5 5.2-0.8 6.8 2.6 1.5 3.3 0.8 5.2-2.6 6.8-3.3 1.6-5.2 0.8-6.8-2.6-1.5-3.3-0.8-5.2 2.6-6.8z"/>
				<path id="&lt;Path&gt;" class="s8" d="m804.3 141.7q2.2 4.6-2.5 6.8-4.7 2.2-6.8-2.5-2.2-4.6 2.5-6.8 4.6-2.2 6.8 2.5z"/>
				<path id="&lt;Path&gt;" class="s8" d="m825.6 272.9c1.6 2.3 0.1 5.7-2.4 6.9-2.6 1.2-5.8 0-7-2.5-1.2-2.6 0-5.8 2.5-7 2.6-1.2 6.1-0.1 6.9 2.6z"/>
				<path id="&lt;Path&gt;" class="s8" d="m690.4 82.6c-3.1 1.4-5.4 0.6-6.9-2.5-1.4-3.1-0.6-5.3 2.5-6.8 3.1-1.5 5.4-0.7 6.8 2.4 1.5 3.2 0.7 5.4-2.4 6.9z"/>
				<path id="&lt;Path&gt;" class="s8" d="m763.2 97.7q2.3 4.6-2.4 6.8-4.6 2.3-6.8-2.4-2.2-4.6 2.4-6.8 4.6-2.3 6.8 2.4z"/>
				<path id="&lt;Path&gt;" class="s8" d="m776.1 108.7c2.6-1.3 5.6 0 6.8 2.9 1 2.7-0.1 5.6-3 6.7-2.7 1.1-5.6 0-6.8-2.9-1-2.7 0-5.8 3-6.7z"/>
				<path id="&lt;Path&gt;" class="s8" d="m706.7 79.7c-1 1-2.2 0.6-3.5 0.1-1.3-0.6-2.7-0.8-3.3-2.6-0.4-1.2-0.7-2.2-0.1-3.4 0.7-1.2 0.7-2.7 2.4-3.4 1.3-0.4 2.4-0.9 3.8-0.2 1.2 0.7 2.6 0.8 3.3 2.4 1 2.6 0 5.9-2.6 7.1z"/>
				<path id="&lt;Path&gt;" class="s8" d="m828.6 188c1 1 0.5 2.2 0 3.5-0.5 1.3-0.8 2.7-2.5 3.3-1.2 0.4-2.2 0.7-3.4 0.1-1.3-0.6-2.8-0.6-3.4-2.4-0.5-1.3-1-2.4-0.2-3.7 0.6-1.3 0.7-2.7 2.4-3.4 2.5-1 5.8 0 7.1 2.6z"/>
				<path id="&lt;Path&gt;" class="s8" d="m737.4 81.5c2.8-1.3 5.9 0.1 7.3 2.5 0.8 1.5 0 2.7-0.3 4.1-0.3 1.5-1.4 2-2.5 2.7-1.6 1-2.8 0-4.2-0.3-1.3-0.3-1.9-1.2-2.5-2.3-1-1.5-0.4-2.7 0.1-4.1 0.4-1.3 0.7-2.7 2.1-2.6z"/>
				<path id="&lt;Path&gt;" class="s8" d="m794.2 122.9c2.8-1.3 6 0 7.3 2.4 0.9 1.6 0 2.8-0.2 4.1-0.3 1.6-1.4 2.1-2.6 2.8-1.6 0.9-2.8 0-4.1-0.3-1.3-0.3-1.9-1.2-2.6-2.3-1-1.5-0.3-2.8 0.2-4.1 0.4-1.3 0.7-2.7 2-2.6z"/>
				<path id="&lt;Path&gt;" class="s8" d="m824.7 201.9c1.4-1.3 2.7-0.2 4.1 0.1 1.5 0.3 2.1 1.3 2.8 2.5 0.9 1.6-0.1 2.8-0.3 4.2-0.3 1.6-1.5 2-2.6 2.7-1.6 1-2.8-0.1-4.1-0.4-1.3-0.3-1.9-1.2-2.6-2.3-0.9-1.5-0.2-2.7 0.2-4.1 0.4-1.4 1-2.5 2.5-2.7z"/>
				<path id="&lt;Path&gt;" class="s8" d="m607.7 72.8c1.1 1.1 0.8 2.3 0.2 3.6-0.5 1.3-0.7 2.7-2.5 3.3-1.2 0.4-2.2 0.7-3.4 0.1-1.2-0.6-2.8-0.6-3.4-2.3-0.4-1.3-1-2.4-0.2-3.8 0.6-1.2 0.7-2.7 2.4-3.3 1.3-0.5 2.4-0.9 3.7-0.2 1.3 0.6 2.9 0.7 3.2 2.6z"/>
				<path id="&lt;Path&gt;" class="s8" d="m558.8 80.6c1 2.4-0.4 5.9-2.7 6.9-2.3 0.9-5.9-0.5-6.8-2.8-0.8-2.2 0.5-5.6 2.6-6.6 2.6-1.2 6.1 0.6 6.9 2.5z"/>
				<path id="&lt;Path&gt;" class="s8" d="m827.6 218.3c2.3-1 5.9 0.4 6.8 2.7 1 2.4-0.5 5.9-2.8 6.8-2.2 0.9-5.6-0.5-6.6-2.6-1.1-2.5 0.6-6.1 2.6-6.9z"/>
				<path id="&lt;Path&gt;" class="s8" d="m568.5 75.1c2.4-1 5.9 0.5 6.8 2.8 1 2.3-0.6 5.9-2.8 6.7-2.3 0.9-5.7-0.5-6.6-2.6-1-2.3 0.3-5.9 2.6-6.9z"/>
				<path id="&lt;Path&gt;" class="s8" d="m816.8 152.8c1.8-1 5.7-0.1 6.9 2.4 1 2.1-0.2 5.6-2.2 6.8-2.2 1.2-5.8 0-7-2.2-1.2-2.2 0-5.8 2.3-7z"/>
				<path id="&lt;Path&gt;" class="s8" d="m617.6 67.4c2.3-1 5.9 0.4 6.8 2.7 1 2.3-0.5 5.8-2.8 6.8-2.2 0.8-5.6-0.5-6.6-2.6-1.1-2.6 0.6-6.1 2.6-6.9z"/>
				<path id="&lt;Path&gt;" class="s8" d="m828.2 288.8c1 2.4-0.4 5.9-2.7 6.8-2.3 1-5.9-0.6-6.8-2.8-0.8-2.3 0.6-5.7 2.7-6.6 2.3-1 5.9 0.3 6.8 2.6z"/>
				<path id="&lt;Path&gt;" class="s8" d="m634 64.5c2.5-1.1 6.1 0.7 6.9 2.6 0.9 2.3-0.4 5.9-2.7 6.8-2.2 0.9-5.5-0.3-6.7-2.4-0.9-1.9-0.1-5.7 2.5-7z"/>
				<path id="&lt;Path&gt;" class="s8" d="m657.2 63.9c1.2 2.2 0 5.8-2.3 7-2 1-5.5 0-6.7-2.1-1.3-2.1-0.2-5.8 2-7.1 2.2-1.2 5.8 0 7 2.2z"/>
				<path id="&lt;Path&gt;" class="s8" d="m834.4 243.5c-2.3 1.1-5.9-0.3-6.9-2.6-0.9-2.4 0.5-5.9 2.8-6.8 2.2-0.9 5.6 0.4 6.6 2.6 1.2 2.5-0.6 6.1-2.5 6.8z"/>
				<path id="&lt;Path&gt;" class="s8" d="m819.3 168.7c2.1-1.2 5.8 0 6.9 2.3 1.1 2 0 5.5-2.1 6.8-2.1 1.2-5.8 0.1-7-2.1-1.2-2.2-0.1-5.8 2.2-7z"/>
				<path id="&lt;Path&gt;" class="s8" d="m591.7 74.7c0.9 1.8 0.1 5.7-2.5 6.9-2.2 1-5.6-0.2-6.7-2.3-1.2-2.2 0-5.8 2.3-7 2.1-1.1 5.8 0.1 6.9 2.4z"/>
				<path id="&lt;Path&gt;" class="s8" d="m777.4 101.7c-1.5-0.4-2.9 0.8-4.2-0.2-1-0.7-2.5-1.5-2.7-2.5-0.1-1.2-0.9-2.8 0.1-4 0.8-1 1.7-1.8 2.5-2.8 1.2 0.8 2.4-0.6 3.8 0.1 1.3 0.6 1.5 2.1 2.8 2.5-0.4 1.3 0.7 2.6 0.1 4.1-0.6 1.3-2.3 1.4-2.4 2.8z"/>
				<path id="&lt;Path&gt;" class="s8" d="m725.2 70c0 1.3 0.1 2.6 0 3.8 0 1.6-1.9 2-2.4 3.2-1.3-0.3-2.4 0.5-3.8 0.2-1.6-0.3-1.8-2.1-3.2-2.6 0.6-1.2-0.4-2.4-0.1-3.7 0.4-1.5 2.1-1.6 2.3-3 1.3-0.1 2.5-0.2 3.8-0.2 1.7-0.1 1.8 2 3.4 2.3z"/>
				<path id="&lt;Path&gt;" class="s8" d="m666.6 59.6c1.5 0.5 2.9-0.8 4.2 0.3 1 0.7 2.6 1.6 2.6 2.5 0 1.3 1.1 2.8-0.1 4.1-0.9 0.9-1.7 2.4-2.6 2.5-1.3 0-2.8 1-4.1-0.2-0.8-0.8-2.3-1.5-2.4-2.3-0.1-1.3-0.9-2.8 0.1-4.1 0.7-1 1.6-1.9 2.3-2.8z"/>
				<path id="&lt;Path&gt;" class="s8" d="m820.8 138.9c-0.1 1.3 0.2 2.8-0.3 4-0.4 1.1-1.4 2.3-2.4 2.7-1.2 0.4-2.7 0.1-3.9-0.3-1.1-0.5-2.3-1.4-2.7-2.5-0.5-1-0.3-2.5 0.1-3.6 0.5-1.1 1.4-2.4 2.4-2.8 1.2-0.5 2.8-0.3 4 0.1 1.1 0.4 1.9 1.5 2.8 2.4z"/>
				<path id="&lt;Path&gt;" class="s8" d="m836.5 259.6c-2.9 1.4-4.5 1-5.9-1.8-1.4-2.9-0.8-4.6 1.7-6 2.7-1.6 5.2-0.5 6.2 1.9 1.2 2.9 0.7 4.6-2 5.9z"/>
				<path id="&lt;Path&gt;" class="s8" d="m796.3 114.6c-2.2 1.5-4.9 0.2-5.8-2.1-1.2-3-0.7-4.5 2.3-6 2.3-1.3 4.9-0.1 5.8 2.3 1 2.8 0.5 4.5-2.3 5.8z"/>
				<path id="&lt;Path&gt;" class="s8" d="m758.3 87.1c-2.8 1.3-4.6 0.7-5.9-2-1.5-3.1-0.9-4.6 2.2-6.1 2.8-1.2 4.5-0.5 5.8 2.3 1.3 2.8 0.6 4.5-2.1 5.8z"/>
				<path id="&lt;Path&gt;" class="s8" d="m735.1 65.5c2.4-1.1 4.7-0.3 5.9 2.1 1.1 2.5 0.3 4.8-2.1 5.9-2.5 1.1-4.8 0.3-5.9-2.1-1.2-2.4-0.3-4.7 2.1-5.9z"/>
				<path id="&lt;Path&gt;" class="s8" d="m817.4 123c1 1.1 0.1 2.2-0.1 3.3-0.3 1.5-1.6 1.7-2.5 2.3-1.3 0.9-2.3 0.1-3.4-0.1-1.5-0.2-1.7-1.5-2.4-2.5-0.8-1.2-0.1-2.2 0.2-3.4 0.2-1.5 1.5-1.6 2.4-2.3 1.3-0.9 2.3-0.3 3.4 0.1 1.5 0.6 1.5 0.6 2.4 2.6z"/>
				<path id="&lt;Path&gt;" class="s8" d="m689.3 59.7c1.1 2.3 0.2 4.6-2.2 5.8-2.4 1.1-4.7 0.2-5.9-2.3-1.1-2.3-0.2-4.7 2.3-5.8 2.4-1.1 4.7-0.2 5.8 2.3z"/>
				<path id="&lt;Path&gt;" class="s8" d="m844.4 185.4c0.7 2 0.4 4.5-2.3 5.7-1.9 0.9-4.5 0.5-5.7-2.2-0.9-1.9-0.5-4.5 2.2-5.7 1.9-0.9 4.4-0.4 5.8 2.2z"/>
				<path id="&lt;Path&gt;" class="s8" d="m845 207.7c-2.4 0.7-4.8 0.1-5.8-2.3-0.9-2.3-0.1-4.8 2.3-5.8 2.3-0.9 4.8-0.1 5.8 2.3 0.9 2.3 0 4.6-2.3 5.8z"/>
				<path id="&lt;Path&gt;" class="s8" d="m814.3 106.1c1 2.2 0 4.9-2.2 5.9-2.1 1-4.8-0.1-5.8-2.2-1-2.1 0.1-4.9 2.2-5.8 2.1-1 4.9 0 5.8 2.1z"/>
				<path id="&lt;Path&gt;" class="s8" d="m841.7 169.4c1.1 2.3-0.1 5-2.1 5.9-2.2 1.1-4.9-0.1-5.8-2.1-1.1-2.2 0.1-4.9 2.1-5.8 2.2-1.1 4.9 0.1 5.8 2z"/>
				<path id="&lt;Path&gt;" class="s8" d="m850.1 218.1c1 2.4 0.2 4.7-1.9 5.9-2.3 1.2-4.7 0.3-5.9-1.9-1.2-2.3-0.3-4.7 1.9-5.8 2.2-1.3 4.5-0.3 5.9 1.8z"/>
				<path id="&lt;Path&gt;" class="s8" d="m699.9 54.6c2.2-1.1 4.9 0.1 5.8 2.1 1.1 2.2-0.1 4.9-2.1 5.8-2.2 1.1-4.9-0.1-5.8-2.1-1.1-2.2 0.1-4.9 2.1-5.8z"/>
				<path id="&lt;Path&gt;" class="s8" d="m774.1 84.5c-2.2 1-4.9 0-5.9-2.1-1-2.2 0-4.9 2.1-5.9 2.2-1 4.9 0.1 5.9 2.1 1 2.2-0.1 4.9-2.1 5.9z"/>
				<path id="&lt;Path&gt;" class="s8" d="m841.4 270.2c1.1 2.6-0.1 4.9-2 5.8-2.6 1.3-5 0-5.9-1.9-1.3-2.6 0.1-4.9 2-5.9 2.6-1.2 4.7 0.2 5.9 2z"/>
				<path id="&lt;Path&gt;" class="s8" d="m793.4 98.1c-2.1 1-4.9-0.1-5.8-2.2-1-2.1 0-4.9 2.1-5.8 2.2-1 4.9 0 5.9 2.2 1 2.1-0.1 4.8-2.2 5.8z"/>
				<path id="&lt;Path&gt;" class="s8" d="m839.6 152.8c0.7 2.4 0 4.8-2.4 5.7-2.3 1-4.7 0.1-5.7-2.3-0.9-2.2-0.1-4.7 2.3-5.7 2.3-0.9 4.6 0 5.8 2.3z"/>
				<path id="&lt;Path&gt;" class="s8" d="m755.7 71.2c-1.3 0.7-5.4-0.7-5.9-2.1-0.6-1.3 0.7-4.9 1.9-5.7 1.2-0.8 5.2 0.5 6 1.9 0.7 1.2-0.6 5.2-2 5.9z"/>
				<path id="&lt;Path&gt;" class="s8" d="m834.6 142c-1.3 0.7-5.3-0.7-6-2.1-0.5-1.2 0.7-4.9 1.9-5.7 1.1-0.8 5.2 0.4 6 1.8 0.8 1.2-0.5 5.2-1.9 6z"/>
				<path id="&lt;Path&gt;" class="s8" d="m716.1 51.7c1.7-0.6 5.5 0.6 6 1.9 0.3 0.8 0.2 1.9 0 2.7-0.7 3.1-2.8 4.1-5.7 2.8-1.9-0.9-2.7-2.3-1.9-4.3 0.4-1.2 1.2-2.2 1.6-3.1z"/>
				<path id="&lt;Path&gt;" class="s8" d="m828.2 118.2c2.4-1.1 3.7-0.6 4.8 1.8 1.2 2.5 0.7 3.8-2 5-2.2 1-3.6 0.4-4.7-2-1.1-2.3-0.5-3.7 1.9-4.8z"/>
				<path id="&lt;Path&gt;" class="s8" d="m843.6 287.1c1.2 2.3 0.7 3.7-1.6 4.8-2.6 1.2-3.9 0.7-5.1-1.9-1-2.3-0.5-3.6 1.9-4.7 2.4-1.1 3.7-0.6 4.8 1.8z"/>
				<path id="&lt;Path&gt;" class="s8" d="m850 240.2c-2.4 1.2-3.8 0.7-4.9-1.6-1.2-2.6-0.7-3.9 1.9-5.1 2.3-1 3.6-0.5 4.8 1.9 1.1 2.4 0.6 3.7-1.8 4.8z"/>
				<path id="&lt;Path&gt;" class="s8" d="m615.2 52.3c2.4-1.1 3.7-0.7 4.8 1.7 1.3 2.5 0.8 3.8-1.8 5-2.3 1.1-3.7 0.5-4.8-1.9-1.1-2.3-0.6-3.7 1.8-4.8z"/>
				<path id="&lt;Path&gt;" class="s8" d="m792.3 76.8c1.1 2.3 0.6 3.7-1.8 4.8-2.5 1.2-3.7 0.7-5-2-1-2.3-0.4-3.6 2.1-4.7 2.3-1.1 3.6-0.6 4.7 1.9z"/>
				<path id="&lt;Path&gt;" class="s8" d="m587.7 59.4c1.2 2.5 0.8 3.8-1.5 4.9-2.4 1.2-3.9 0.8-4.9-1.4-1.3-2.6-0.9-3.9 1.6-5.1 2.4-1.1 3.7-0.7 4.8 1.6z"/>
				<path id="&lt;Path&gt;" class="s8" d="m604.2 56.6c1.2 2.4 0.7 3.7-1.6 4.9-2.5 1.2-3.8 0.7-5-1.8-1.1-2.4-0.6-3.7 1.8-4.8 2.4-1.1 3.7-0.7 4.8 1.7z"/>
				<path id="&lt;Path&gt;" class="s8" d="m636.6 51.2c1.1 2.4 0.6 3.7-1.8 4.8-2.5 1.2-3.8 0.7-5-2-1-2.2-0.4-3.6 2.1-4.7 2.3-1.1 3.6-0.5 4.7 1.9z"/>
				<path id="&lt;Path&gt;" class="s8" d="m653.4 49c1.1 2.3 0.6 3.7-1.8 4.8-2.5 1.2-3.8 0.6-5-2.1-1-2.3-0.5-3.5 2.1-4.7 2.3-1 3.6-0.4 4.7 2z"/>
				<path id="&lt;Path&gt;" class="s8" d="m668 50.9c-1.8 0.8-3.9 0-4.8-1.8-0.9-1.9 0-4.3 2-5 2-0.6 3.8 0 4.7 2 0.8 1.8-0.1 4-1.9 4.8z"/>
				<path id="&lt;Path&gt;" class="s8" d="m773.6 62.8c0.8 1.8 0.1 3.9-1.7 4.9-2 0.9-4.2 0.1-5-1.9-0.8-1.8 0.1-4 1.9-4.8 1.8-0.8 3.9 0 4.8 1.8z"/>
				<path id="&lt;Path&gt;" class="s8" d="m854.3 251.1c0.9 1.7 0.1 4-1.6 4.9-2 1-3.8 0.4-4.9-1.5-1.1-1.8-0.3-4.2 1.6-5.1 1.9-0.8 4-0.1 4.9 1.7z"/>
				<path id="&lt;Path&gt;" class="s8" d="m737.7 52.2c1 1.8-0.1 4-1.7 4.8-2 0.9-4.2 0.1-5-1.9-0.7-1.8 0.2-4 1.9-4.8 1.9-0.8 4 0.1 4.8 1.9z"/>
				<path id="&lt;Path&gt;" class="s8" d="m571 61.7c0.8 1.8 0.1 4-1.6 4.9-1.7 0.9-4.1 0.2-5-1.5-1-1.9-0.2-4.2 1.7-5.1 1.8-0.9 4.1 0 4.9 1.7z"/>
				<path id="&lt;Path&gt;" class="s8" d="m811.8 90.4c0.7 1.8-0.1 3.9-1.9 4.8-2.2 1.1-4.4-0.5-5-2.1-0.6-1.8 0.3-3.9 2.1-4.7 1.8-0.7 4 0.3 4.8 2z"/>
				<path id="&lt;Path&gt;" class="s8" d="m549.8 62.9c1.4-0.6 4.1 0.5 4.8 1.9 0.6 1.5-0.5 4.2-2 4.8-1.5 0.7-4.2-0.5-4.8-1.9-0.6-1.5 0.5-4.2 2-4.8z"/>
				<path id="&lt;Path&gt;" class="s8" d="m685.7 43.3c0.7 1.5-0.3 4.3-1.7 5-1.5 0.7-4.2-0.3-4.9-1.7-0.7-1.5 0.2-4.2 1.7-4.9 1.4-0.7 4.2 0.2 4.9 1.6z"/>
				<path id="&lt;Path&gt;" class="s8" d="m828.7 109.1c-1.5 0.6-4.2-0.4-4.9-1.8-0.7-1.4 0.3-4.2 1.7-4.9 1.5-0.7 4.3 0.3 4.9 1.8 0.7 1.4-0.3 4.2-1.7 4.9z"/>
				<path id="&lt;Path&gt;" class="s8" d="m854.6 150.3c0.6 1-0.5 4.3-1.6 4.9-1 0.6-4.3-0.5-4.9-1.6-0.6-1 0.5-4.3 1.6-4.9 1-0.6 4.3 0.5 4.9 1.6z"/>
				<path id="&lt;Path&gt;" class="s8" d="m855.8 171.7c-1 0.5-4.4-0.7-4.9-1.7-0.5-1.1 0.7-4.4 1.8-4.9 1-0.5 4.4 0.7 4.9 1.8 0.5 1-0.7 4.3-1.8 4.8z"/>
				<path id="&lt;Path&gt;" class="s8" d="m858.1 197.4c1-0.5 4.4 0.6 4.9 1.7 0.6 1-0.6 4.4-1.6 4.9-1.1 0.6-4.4-0.6-5-1.7-0.5-1 0.7-4.3 1.7-4.9z"/>
				<path id="&lt;Path&gt;" class="s8" d="m702.2 40.5c0.5 1.2-0.8 4.5-1.8 4.9-1.2 0.5-4.5-0.8-4.9-1.8-0.5-1.2 0.8-4.5 1.8-4.9 1.2-0.5 4.5 0.8 4.9 1.8z"/>
				<path id="&lt;Path&gt;" class="s8" d="m754.2 49.2c0.5 1.1-0.7 4.4-1.8 4.9-1 0.5-4.4-0.7-4.9-1.7-0.5-1.1 0.7-4.4 1.8-4.9 1-0.5 4.4 0.7 4.9 1.7z"/>
				<path id="&lt;Path&gt;" class="s8" d="m860.4 183.2c0.6 1-0.4 4.3-1.5 5-1 0.6-4.3-0.5-5-1.6-0.6-1 0.4-4.3 1.5-4.9 1-0.6 4.3 0.4 5 1.5z"/>
				<path id="&lt;Path&gt;" class="s8" d="m846.4 136.2c-1.1-2.3-1-2.6 1.5-3.8 2.4-1.1 2.8-0.9 4 1.8 0.9 2.1 0.7 2.6-1.8 3.7-2.2 1-2.6 0.9-3.7-1.7z"/>
				<path id="&lt;Path&gt;" class="s8" d="m538.1 67.8c1 2.3 0.9 2.6-1.6 3.7-2.3 1.1-2.7 1-4-1.7-0.9-2.1-0.7-2.6 1.8-3.7 2.3-1 2.6-0.9 3.8 1.7z"/>
				<path id="&lt;Path&gt;" class="s8" d="m855 272c-2.3 1-2.6 0.9-3.8-1.6-1.1-2.4-0.9-2.8 1.8-4 2.1-0.9 2.5-0.7 3.7 1.8 1 2.3 0.8 2.6-1.7 3.8z"/>
				<path id="&lt;Path&gt;" class="s8" d="m867.5 232.7c0.7 1.4 0.1 3.2-1.2 3.9-1.5 0.8-3.4 0.2-4.1-1.4-0.6-1.4 0.1-3.2 1.4-3.8 1.4-0.7 3.2-0.1 3.9 1.3z"/>
				<path id="&lt;Path&gt;" class="s8" d="m788.7 60.4c0.7 1.3 0.2 3.2-1.1 3.9-1.5 0.9-3.5 0.3-4.2-1.3-0.6-1.4 0-3.2 1.3-3.8 1.4-0.7 3.2-0.2 4 1.2z"/>
				<path id="&lt;Path&gt;" class="s8" d="m845.2 116.7c1.4-0.7 3.2-0.1 3.9 1.2 0.8 1.5 0.2 3.4-1.4 4.1-1.4 0.6-3.2 0-3.9-1.4-0.6-1.4 0-3.2 1.4-3.9z"/>
				<path id="&lt;Path&gt;" class="s8" d="m806.8 78c-1.4 0.7-3.2 0.1-3.9-1.2-0.8-1.6-0.2-3.4 1.4-4.1 1.4-0.7 3.2 0 3.8 1.4 0.7 1.4 0.1 3.2-1.3 3.9z"/>
				<path id="&lt;Path&gt;" class="s8" d="m770 46.6c0.7 1.4 0 3.2-1.3 3.9-1.6 0.8-3.4 0.1-4.1-1.5-0.6-1.4 0.2-3.2 1.6-3.8 1.4-0.6 3.2 0 3.8 1.4z"/>
				<path id="&lt;Path&gt;" class="s8" d="m718.2 38.4c0.8 1.4 0.2 3.2-1.1 4-1.5 0.8-3.4 0.2-4.1-1.3-0.7-1.4 0-3.2 1.3-3.9 1.4-0.7 3.2-0.1 3.9 1.2z"/>
				<path id="&lt;Path&gt;" class="s8" d="m825.6 91.9c-1.4 0.7-3.2 0.1-4-1.2-0.8-1.5-0.2-3.4 1.4-4.1 1.4-0.7 3.2 0 3.8 1.4 0.7 1.4 0.1 3.2-1.2 3.9z"/>
				<path id="&lt;Path&gt;" class="s8" d="m863.3 220.2c-1.4 0.6-3.2 0.1-3.9-1.3-0.8-1.5-0.2-3.4 1.4-4.1 1.4-0.6 3.2 0.1 3.8 1.5 0.7 1.4 0.1 3.2-1.3 3.9z"/>
				<path id="&lt;Path&gt;" class="s8" d="m859.5 284.2c0 0.5 0.1 0.7 0 0.9-0.3 1-0.6 1.9-1 2.8-0.2 0.3-0.7 0.4-1.1 0.5-0.3 0-0.7-0.2-1-0.4-2.9-1-2.7-0.5-1.7-3.4 0.6-1.7 0.6-2 2.6-1.2 0.7 0.3 1.5 0.6 2.2 0.8z"/>
				<path id="&lt;Path&gt;" class="s8" d="m733.7 39.5c-0.4 0.1-0.7 0.2-0.9 0.1-0.9-0.3-1.8-0.6-2.7-1-0.8-0.2-0.8-0.7-0.6-1.4 0.3-0.8 0.5-1.6 0.9-2.3 0.2-0.4 0.8-0.8 1-0.7 1.1 0.3 2.1 0.7 3.1 1.1 0.2 0.1 0.4 0.4 0.4 0.6-0.4 1.2-0.8 2.5-1.2 3.6z"/>
				<path id="&lt;Path&gt;" class="s8" d="m823.9 71.3c0.7 1.4 0.5 2.3-0.8 3-1.3 0.8-2.3 0.6-3-0.6-0.9-1.5-0.6-2.5 0.8-3.2 1.4-0.7 2.3-0.4 3 0.8z"/>
				<path id="&lt;Path&gt;" class="s8" d="m845.5 101.8c0.7 1.4 0.5 2.3-0.8 2.9-1.4 0.8-2.3 0.5-3-0.7-0.8-1.5-0.6-2.4 1-3.2 1.3-0.6 2.2-0.3 2.8 1z"/>
				<path id="&lt;Path&gt;" class="s8" d="m662.7 29.1c1.4-0.7 2.2-0.4 2.9 0.9 0.8 1.6 0.5 2.4-1.2 3.1-1.3 0.6-2.1 0.3-2.8-1.2-0.6-1.3-0.3-2.2 1.1-2.8z"/>
				<path id="&lt;Path&gt;" class="s8" d="m804.5 57.8c0.7 1.4 0.5 2.3-0.8 3-1.3 0.7-2.3 0.5-3-0.7-0.8-1.5-0.6-2.5 0.9-3.2 1.4-0.7 2.2-0.4 2.9 0.9z"/>
				<path id="&lt;Path&gt;" class="s8" d="m646.3 31.9c1.4-0.6 2.2-0.2 2.9 1.2 0.6 1.4 0.2 2.4-1.4 3-1.3 0.5-2.1 0.1-2.7-1.4-0.6-1.4-0.3-2.1 1.2-2.8z"/>
				<path id="&lt;Path&gt;" class="s8" d="m632.7 36c0.6 1.4 0.3 2.2-1.1 2.9-1.5 0.7-2.4 0.3-3.1-1.4-0.5-1.3 0-2.1 1.4-2.7 1.4-0.6 2.2-0.2 2.8 1.2z"/>
				<path id="&lt;Path&gt;" class="s8" d="m615.5 40.8c-1.4 0.7-2.3 0.4-2.9-1-0.8-1.5-0.5-2.4 1.2-3.1 1.3-0.5 2.1-0.2 2.8 1.2 0.6 1.4 0.3 2.2-1.1 2.9z"/>
				<path id="&lt;Path&gt;" class="s8" d="m599 43.7c-1.4 0.7-2.2 0.4-2.9-1-0.8-1.5-0.5-2.4 1.2-3.1 1.3-0.5 2.1-0.2 2.8 1.3 0.6 1.3 0.3 2.2-1.1 2.8z"/>
				<path id="&lt;Path&gt;" class="s8" d="m866.8 248.6c1.4-0.7 2.2-0.5 2.9 0.8 0.7 1.4 0.5 2.3-0.7 3-1.6 0.8-2.5 0.6-3.2-1-0.6-1.3-0.4-2.2 1-2.8z"/>
				<path id="&lt;Path&gt;" class="s8" d="m868.8 151c-1.3 0.7-2.2 0.4-2.9-0.9-0.7-1.3-0.5-2.3 0.7-2.9 1.6-0.9 2.5-0.6 3.2 0.9 0.7 1.4 0.4 2.2-1 2.9z"/>
				<path id="&lt;Path&gt;" class="s8" d="m869.7 163.6c1.4-0.7 2.3-0.5 2.9 0.8 0.8 1.4 0.5 2.3-0.7 3-1.5 0.8-2.4 0.6-3.2-0.9-0.6-1.4-0.3-2.3 1-2.9z"/>
				<path id="&lt;Path&gt;" class="s8" d="m864 130.9c1.2 0.5 2.2 0.7 3.1 1.2 0.5 0.3-0.4 3.2-1 3.1-1-0.2-2.4-0.4-2.7-1.1-0.4-0.7 0.3-1.9 0.6-3.2z"/>
				<path id="&lt;Path&gt;" class="s8" d="m877 201.2c-1.2-0.6-2.2-0.9-3-1.4-0.5-0.3 0.5-3.1 1.1-3 1 0.2 2.3 0.5 2.7 1.2 0.3 0.7-0.4 1.9-0.8 3.2z"/>
				<path id="&lt;Path&gt;" class="s8" d="m567.4 46.5c-0.5 1.2-0.7 2.6-1.4 2.9-0.7 0.3-2-0.4-2.9-0.9-0.5-0.3 0.6-3.1 1.2-3 1 0.2 1.9 0.6 3.1 1z"/>
				<path id="&lt;Path&gt;" class="s8" d="m747 31.9c1.1 0.6 2.5 0.8 2.8 1.5 0.3 0.7-0.4 2-0.9 2.8-0.3 0.5-3.1-0.6-3-1.1 0.2-1 0.6-2 1.1-3.2z"/>
				<path id="&lt;Path&gt;" class="s8" d="m682.4 26.9c-0.4 1.2-0.5 2.6-1.2 3-0.7 0.4-1.9-0.2-2.9-0.5-0.5-0.2 0.2-3.1 0.8-3.1 1-0.1 2 0.3 3.3 0.6z"/>
				<path id="&lt;Path&gt;" class="s8" d="m782.8 42.6c1.2 0.6 2.6 0.8 2.9 1.5 0.3 0.7-0.4 2-0.9 2.8-0.3 0.5-3.1-0.6-3-1.1 0.2-1 0.6-2 1-3.2z"/>
				<path id="&lt;Path&gt;" class="s8" d="m875.9 180.8c-0.4 1.2-0.7 2.2-1.2 3.1-0.2 0.5-3.1-0.4-3-1 0.1-1 0.4-2.4 1-2.7 0.7-0.4 1.9 0.3 3.2 0.6z"/>
				<path id="&lt;Path&gt;" class="s8" d="m580.3 42.4c1.2 0.4 2.6 0.5 3 1.1 0.4 0.7-0.2 2-0.5 2.9-0.2 0.5-3.1-0.1-3.1-0.8-0.1-1 0.3-2 0.6-3.2z"/>
				<path id="&lt;Path&gt;" class="s8" d="m843 85.2c-0.5 1.2-0.8 2.2-1.3 3.1-0.3 0.5-3.2-0.6-3-1.2 0.2-0.9 0.5-2.3 1.2-2.6 0.7-0.4 1.9 0.4 3.1 0.7z"/>
				<path id="&lt;Path&gt;" class="s8" d="m871.6 265.5c0.8 1.5 0.8 1.5-0.6 2.2-0.9 0.5-1.4 0.5-1.9-0.6-0.6-1.5-0.7-1.4 0.7-2.1 0.9-0.5 1.5-0.7 1.8 0.5z"/>
				<path id="&lt;Path&gt;" class="s8" d="m877.9 213.3c0.8-0.6 1.4-0.6 1.9 0.5 0.6 1.5 0.6 1.5-0.7 2.2-0.9 0.4-1.4 0.5-1.9-0.6-0.6-1.5-0.7-1.5 0.7-2.1z"/>
				<path id="&lt;Path&gt;" class="s8" d="m697.7 25.9c0.9 1.3-0.3 1.4-1 1.7-1.2 0.6-1.2 0.5-2-1.1-0.6-1.3 0.4-1.3 1.1-1.7 1.2-0.6 1.3-0.5 1.9 1.1z"/>
				<path id="&lt;Path&gt;" class="s8" d="m863.7 116.3c0.8 1 0.2 1.4-0.7 1.8-1.4 0.5-1.3 0.5-2.1-0.9-0.6-1.1-0.1-1.4 0.8-1.8 1.4-0.6 1.4-0.6 2 0.9z"/>
				<path id="&lt;Path&gt;" class="s8" d="m766.2 30.6c-0.5 0.9-0.7 1.8-1.1 2-0.5 0.2-1.3-0.3-1.9-0.5 0.2-0.7 0.3-1.6 0.8-2 0.3-0.3 1.2 0.3 2.2 0.5z"/>
				<path id="&lt;Path&gt;" class="s8" d="m714.3 22.4c-0.3 0.8-0.4 1.6-0.7 2.1-0.3 0.5-2.1 0.1-2.1-0.6-0.1-0.6 0.1-1.5 0.6-1.8 0.4-0.3 1.3 0.1 2.2 0.3z"/>
				<path id="&lt;Path&gt;" class="s8" d="m550.6 48.6c-0.4 0.9-0.5 1.6-0.9 2.1-0.4 0.5-2.1-0.1-2.1-0.7 0-0.6 0.3-1.5 0.8-1.8 0.4-0.2 1.2 0.2 2.2 0.4z"/>
				<path id="&lt;Path&gt;" class="s8" d="m534.2 51.5c-0.5 1-0.6 1.7-1.1 2.1-0.4 0.5-2.1-0.2-2-0.8 0.1-0.6 0.4-1.5 0.8-1.7 0.5-0.3 1.3 0.2 2.3 0.4z"/>
				<path id="&lt;Path&gt;" class="s8" d="m798.8 40.7c0.9 0.4 2 0.6 2 1 0.1 0.6-0.4 1.4-0.7 2.1-0.6-0.3-1.5-0.4-1.7-0.9-0.3-0.4 0.2-1.2 0.4-2.2z"/>
				<path id="&lt;Path&gt;" class="s8" d="m818.1 54.4c0.9 0.3 1.6 0.4 2.1 0.7 0.5 0.3 0.1 2.1-0.5 2.1-0.7 0.1-1.6-0.1-1.9-0.6-0.2-0.4 0.2-1.3 0.3-2.2z"/>
				<path id="&lt;Path&gt;" class="s8" d="m861.7 99c-0.3 0.9-0.5 1.6-0.9 2.1-0.3 0.5-2 0-2-0.6 0-0.7 0.2-1.6 0.7-1.8 0.4-0.3 1.3 0.2 2.2 0.3z"/>
				<path id="&lt;Path&gt;" class="s8" d="m838.7 69.9c-0.1 0.3-0.2 0.8-0.2 1.3q-1.1-0.4-2.1-0.8c0.2-0.7 0.3-1.5 0.8-1.8 1-0.6 0.9 0.6 1.5 1.3z"/>
				<path id="&lt;Path&gt;" class="s8" d="m895.6 213.5c-0.5-0.5-0.9-0.7-1-1-0.1-0.1 0.3-0.8 0.3-0.7 0.4 0 0.8 0.2 1.1 0.5 0.1 0-0.2 0.5-0.4 1.2z"/>
				<path id="&lt;Path&gt;" class="s8" d="m885 147.9c-0.5-0.5-0.9-0.7-1.1-1-0.1-0.1 0.3-0.7 0.4-0.7 0.4 0 0.8 0.2 1 0.5 0.1 0.1-0.1 0.5-0.3 1.2z"/>
				<path id="&lt;Path&gt;" class="s8" d="m661.7 14c-0.3 0.6-0.4 1.1-0.5 1.1-0.4 0.1-0.8-0.1-1.1-0.3-0.1 0 0-0.7 0.2-0.8 0.3-0.1 0.7 0 1.4 0z"/>
				<path id="&lt;Path&gt;" class="s8" d="m886.8 161.5c0.6 0.4 1 0.6 1 0.8 0 0.4-0.3 0.7-0.4 1-0.3-0.1-0.8-0.2-0.8-0.4-0.1-0.3 0.1-0.7 0.2-1.4z"/>
				<path id="&lt;Path&gt;" class="s8" d="m644.6 18.6c-0.5-0.5-0.9-0.7-1.1-1 0-0.1 0.3-0.7 0.4-0.7 0.4 0 0.8 0.2 1 0.5 0.1 0-0.1 0.5-0.3 1.2z"/>
				<path id="&lt;Path&gt;" class="s8" d="m873.2 284.1c-0.6-0.3-1-0.4-1.2-0.7-0.1-0.1 0.1-0.6 0.2-0.9 0.3 0.1 0.8 0.2 1.1 0.4 0.1 0 0 0.5-0.1 1.2z"/>
				<path id="&lt;Path&gt;" class="s8" d="m881 230.1c0.5 0.3 1 0.5 1 0.7 0 0.4-0.3 0.7-0.5 1-0.2-0.1-0.7-0.2-0.7-0.4-0.1-0.3 0.1-0.7 0.2-1.3z"/>
				<path id="&lt;Path&gt;" class="s8" d="m678.1 13.3c-0.6-0.3-1-0.4-1.2-0.7-0.1-0.1 0.1-0.6 0.2-0.9 0.3 0.1 0.8 0.2 1.1 0.4 0.1 0.1 0 0.5-0.1 1.2z"/>
				<path id="&lt;Path&gt;" class="s8" d="m629.4 19.5c-0.3 0.6-0.4 1.1-0.5 1.1-0.4 0.1-0.8-0.1-1.1-0.3-0.1 0 0-0.7 0.2-0.8 0.3-0.1 0.7 0 1.4 0z"/>
				<path id="&lt;Path&gt;" class="s8" d="m797.4 25.2c0.5 0.4 1 0.6 0.9 0.7 0 0.4-0.2 0.7-0.4 1.1-0.3-0.2-0.8-0.3-0.8-0.4-0.1-0.4 0.1-0.8 0.3-1.4z"/>
				<path id="&lt;Path&gt;" class="s8" d="m892.9 196.9c-0.5-0.3-0.9-0.5-1.2-0.7-0.1-0.2 0.1-0.6 0.2-0.9 0.4 0.1 0.8 0.1 1.1 0.3 0.1 0.1 0 0.6-0.1 1.3z"/>
				<path id="&lt;Path&gt;" class="s8" d="m887.5 263.8c-0.3 0.6-0.4 1-0.7 1.2-0.1 0.2-0.6-0.1-0.9-0.1 0.1-0.4 0.2-0.8 0.4-1.1 0-0.2 0.5 0 1.2 0z"/>
				<path id="&lt;Path&gt;" class="s8" d="m611.6 21.9c0.5 0.4 1 0.6 0.9 0.8 0 0.3-0.2 0.7-0.4 1-0.3-0.1-0.7-0.2-0.8-0.4-0.1-0.3 0.1-0.7 0.3-1.4z"/>
				<path id="&lt;Path&gt;" class="s8" d="m782 28.2c-0.4 0.5-0.6 0.8-0.9 1-0.2 0.1-0.8-0.3-0.8-0.4 0.1-0.3 0.2-0.7 0.5-1 0.1-0.1 0.5 0.1 1.2 0.4z"/>
				<path id="&lt;Path&gt;" class="s8" d="m596.2 24.9c-0.4 0.5-0.6 0.9-0.9 1-0.2 0.1-0.8-0.3-0.8-0.3 0.1-0.4 0.2-0.8 0.5-1.1 0.1-0.1 0.5 0.2 1.2 0.4z"/>
				<path id="&lt;Path&gt;" class="s8" d="m883.9 246.5c0.6 0.4 1 0.6 1 0.8 0 0.3-0.3 0.7-0.5 1-0.2-0.1-0.7-0.2-0.7-0.4-0.1-0.3 0.1-0.7 0.2-1.4z"/>
				<path id="&lt;Path&gt;" class="s8" d="m890.4 178.8c-0.3 0.6-0.4 1-0.7 1.2-0.1 0.2-0.5-0.1-0.8-0.1 0.1-0.4 0.1-0.8 0.3-1.1 0.1-0.2 0.6 0 1.2 0z"/>
				<path id="&lt;Path&gt;" class="s8" d="m579.2 29.1c-0.5-0.3-1-0.4-1.2-0.7-0.1-0.1 0.1-0.6 0.2-0.9 0.4 0.1 0.8 0.2 1.1 0.4 0.1 0.1 0 0.5-0.1 1.2z"/>
				<path id="&lt;Path&gt;" class="s8" d="m761.2 13.9c0.5 0.3 1 0.5 1 0.7-0.1 0.4-0.3 0.7-0.5 1.1-0.3-0.2-0.7-0.3-0.8-0.5-0.1-0.3 0.1-0.7 0.3-1.3z"/>
				<path id="&lt;Path&gt;" class="s8" d="m745.3 16.4c0.6 0.4 1 0.6 1 0.8 0 0.3-0.3 0.7-0.4 1-0.3-0.1-0.8-0.2-0.8-0.4-0.1-0.3 0.1-0.7 0.2-1.4z"/>
				<path id="&lt;Path&gt;" class="s8" d="m728.6 19.5c0.7 0.2 1.2 0.3 1.2 0.5 0 0.3-0.1 0.7-0.3 1.1 0 0-0.7-0.1-0.8-0.2-0.2-0.4-0.1-0.8-0.1-1.4z"/>
				<path id="&lt;Path&gt;" class="s8" d="m882.7 129.7c-0.3 0.6-0.4 1.1-0.5 1.2-0.4 0-0.8-0.1-1.1-0.3-0.1-0.1 0-0.8 0.2-0.8 0.3-0.2 0.7-0.1 1.4-0.1z"/>
				<path id="&lt;Path&gt;" class="s8" d="m710.9 6.5c-0.4 0.5-0.6 0.9-0.9 1-0.2 0.1-0.8-0.3-0.8-0.3 0.1-0.4 0.3-0.8 0.5-1.1 0.1-0.1 0.5 0.2 1.2 0.4z"/>
				<path id="&lt;Path&gt;" class="s8" d="m695.1 9.1c-0.4 0.5-0.6 0.9-0.9 1-0.2 0.1-0.8-0.3-0.8-0.3 0.1-0.4 0.2-0.8 0.5-1.1 0.1-0.1 0.5 0.2 1.2 0.4z"/>
			</g>
			<path id="&lt;Path&gt;" class="s8" d="m516.1 240.8c-15.5-24-7.3-82-4.7-134.7 0.8-14.5 6.8-28.5 17.6-38.4 23.5-21.4 50.1-7.1 73.1 4.7 18.3 9.3 41.4 17.1 58.3 5.4 12.3-8.5 16.5-24.3 22.6-38 7.9-17.6 21.7-34.2 40.6-38.1 23.7-4.9 47.2 12.2 59.2 33.2 12.1 21 16 45.6 22.9 68.7 10 33.2 26.6 64.2 34.7 97.9 8.1 33.6 6.2 72.6-17.1 98.3-18.3 20.2-47.1 28.5-74.3 27.1-27.2-1.5-53.2-11.7-77.6-23.8-19.5-9.8-39.3-21.1-61.1-21.6-14.5-0.4-43.9 0.5-57-5.7-14.4-6.9-28.6-21.6-37.2-35z"/>
			<path id="&lt;Path&gt;" class="s6" d="m758.1 327c-12.4 17.1-47.8 22.7-72.9 4.4-21.5-15.7-26.3-47.3-52.1-56.8-18.5-6.7-41 1-59.6-5.5-21.8-7.6-29.9-31.5-29.7-52.6 0.2-26 8.7-51.5 17.8-76.4 7.1-19.4 14.8-39.1 29.1-55.2 14.5-16.4 35-28 56.1-37 27.1-11.4 56.6-19.1 86.1-18.3 29.5 0.9 59 11.1 77.9 30.9 16.1 17 33.4 72.5-8.1 123.6-15.8 19.5-25.1 42.6-26.2 66.3-1.2 26.3-5.5 58.8-18.4 76.6z"/>
			<path id="&lt;Path&gt;" class="s8" d="m671.4 303.1c-19.5-9.8-39.3-21.1-61.1-21.6-14.5-0.4-43.9 0.5-57-5.7-14.4-6.9-28.6-21.6-37.2-35-15.5-24-7.3-82-4.7-134.7 0.8-14.5 6.8-28.5 17.6-38.4 23.5-21.4 50.1-7.1 73.1 4.7"/>
		</g>
		<g id="&lt;Group&gt;">
			<text id="abstract
" style="transform: matrix(1,0,0,1,678.248,184.15)" >
				<tspan x="-98.7" y="0" class="t9" dx="0 5 5 5 5 5 5 5 5" >ABSTRACT
</tspan>
			</text>
			<text id="frame
" style="transform: matrix(1,0,0,1,678.248,213.8)" >
				<tspan x="-50.8" y="0" class="t10" dx="0 5 5 5 5 5" >FRAME
</tspan>
			</text>
		</g>
	</g>
</svg>